<?xml version="1.0" encoding="UTF-8"?>
<svg width="952px" height="400px" viewBox="0 0 952 400" version="1.1" xmlns="http://www.w3.org/2000/svg" xmlns:xlink="http://www.w3.org/1999/xlink">
    <!-- Generator: Sketch 58 (84663) - https://sketch.com -->
    <title>Group 23</title>
    <desc>Created with Sketch.</desc>
    <g id="Page-1" stroke="none" stroke-width="1" fill="none" fill-rule="evenodd">
        <g id="Desktop" transform="translate(-258.000000, -15953.000000)">
            <g id="Group-23" transform="translate(261.000000, 15953.000000)">
                <path d="M122.678991,72.0001092 C122.891251,73.8082726 123,75.6430885 123,77.5 C123,107.047234 95.4655121,131 61.5,131 C27.5344879,131 0,107.047234 0,77.5 C0,75.6430885 0.108749124,73.8082726 0.321009235,72.0001092 Z" id="Combined-Shape" stroke="#000000" stroke-width="6" fill="#FFFFFF"></path>
                <path d="M86.9049308,72.0000294 C86.9678749,72.6591333 87,73.3261828 87,74 C87,86.7025492 75.5832611,97 61.5,97 C47.4167389,97 36,86.7025492 36,74 C36,73.3261828 36.0321251,72.6591333 36.0950692,72.0000294 Z" id="Combined-Shape-Copy-2" fill="#000000"></path>
                <path d="M122.678991,4.0001092 C122.891251,5.80827261 123,7.64308846 123,9.5 C123,39.0472341 95.4655121,63 61.5,63 C27.5344879,63 0,39.0472341 0,9.5 C0,7.64308846 0.108749124,5.80827261 0.321009235,4.0001092 Z" id="Combined-Shape-Copy" stroke="#000000" stroke-width="6" fill="#FFFFFF" transform="translate(61.500000, 33.500000) rotate(180.000000) translate(-61.500000, -33.500000) "></path>
                <g id="generated" transform="translate(184.000000, 0.000000)" fill="#000000" fill-rule="nonzero">
                    <g id="Group" transform="translate(82.000000, 65.500000) scale(-1, 1) rotate(-180.000000) translate(-82.000000, -65.500000) ">
                        <path d="M94.5074517,130.939659 C71.0314627,129.370797 50.3919043,115.613082 39.800552,94.4334408 C35.4553818,85.7443574 33.3733211,77.3569784 33.0413983,67.0085214 C32.6189512,53.8240442 36.4813247,40.428374 43.9646734,29.1446338 C47.0726771,24.4983878 48.9435143,22.2356057 53.1076357,18.2229387 C63.0049678,8.74942423 75.0145354,2.74550898 88.4724931,0.573238139 C93.2702852,-0.18102257 103.801288,-0.18102257 108.689604,0.603408567 C122.238086,2.71533855 135.002024,9.29249194 144.869181,19.2185629 C157.361546,31.7392906 164,47.7296177 164,65.3491479 C164,79.800783 159.715179,92.894749 151.266237,104.269 C144.959706,112.777061 136.842686,119.595578 127.428151,124.302165 C122.147562,126.987333 114.181417,129.400967 107.784361,130.336251 C104.525483,130.818977 97.4344066,131.120682 94.5074517,130.939659 Z M108.086109,124.030631 C114.271941,122.974666 119.793928,121.224781 125.044342,118.569784 C131.169825,115.4924 135.484821,112.384846 140.252438,107.648088 C149.425575,98.5366191 154.796688,87.9467987 157.180497,74.2494242 C157.965041,69.6333487 157.904692,60.6123906 157.029623,55.6946108 C155.822631,48.9666053 154.464765,44.9539383 151.326587,38.6784892 C148.158234,32.3426992 144.175161,27.0930447 138.804048,22.114924 C133.674333,17.3479963 135.062374,17.8307232 126.643606,17.8307232 C118.556762,17.8307232 114.060718,18.4039613 108.418031,20.1236757 C105.430727,21.0287886 101.266605,22.6579917 100.663109,23.1407186 C100.451886,23.3217411 100.210488,23.2614003 99.999264,23.0502073 C99.7880405,22.748503 97.9473781,19.3090742 97.2835327,17.9514049 C97.1628335,17.679871 100.54241,16.1110088 104.012511,14.8136803 C107.965409,13.3353293 112.612328,12.3095348 118.04379,11.6759558 C122.600184,11.1630585 122.690708,11.1328881 121.815639,10.6803316 C120.24655,9.86573008 114.362466,8.02533395 110.771665,7.24090281 C106.004048,6.18493782 95.9558418,5.88323353 90.6450782,6.66766467 C80.476173,8.14601566 71.725483,11.7664671 63.125667,18.1324275 C50.723827,27.2438968 41.8826127,42.4196223 40.0721251,57.6556886 C37.7486661,76.9044219 43.9646734,94.584293 57.7545538,108.070474 C67.3803128,117.483648 78.9070837,122.823814 93.6022079,124.603869 C95.8351426,124.875403 105.340202,124.513358 108.086109,124.030631 Z" id="Shape"></path>
                        <path d="M107.331739,107.7386 C91.1278749,105.505988 78.1828887,91.8689544 76.7344986,75.4562414 C75.6180313,62.7846614 80.9891444,50.8975127 91.3390984,43.2342239 C100.361362,36.5363888 112.159706,34.6356518 123.414903,38.0750806 C133.523459,41.1524643 142.545722,49.8717181 146.196872,60.0693229 C150.119595,71.1116997 148.278933,84.2056656 141.45943,93.2869645 C133.312236,104.178489 120.608648,109.578996 107.331739,107.7386 Z M119.612879,100.678719 C125.014167,99.2607094 129.178289,96.9074159 133.161362,92.9550898 C140.795584,85.4124827 143.722539,74.8528328 141.097332,64.3836942 C140.493836,62.0002303 138.019503,56.7505758 136.540938,54.6989866 C133.432935,50.4147858 129.027415,46.8245048 124.380497,44.8332566 C119.763753,42.8118379 118.556762,42.6006449 112.461454,42.5704744 C107.724011,42.5704744 106.728243,42.6609857 104.676357,43.2643943 C95.1411224,46.0099033 87.5068997,53.2508061 84.3385465,62.4829572 C82.1961362,68.7885767 82.2564857,75.0640258 84.54977,81.7618609 C85.9378105,85.8650392 87.2353266,87.9769691 90.9770009,92.26117 C94.74885,96.5755412 100.813983,99.8942883 107.120515,101.101105 C110.319043,101.704514 116.504876,101.493321 119.612879,100.678719 Z" id="Shape"></path>
                        <path d="M119.703404,89.3648088 C117.017847,88.0976509 115.629807,85.92538 115.629807,82.9083372 C115.629807,80.5550438 116.203128,79.1370336 117.802392,77.5078305 C121.332843,73.9175495 127.277277,74.9131737 129.69126,79.5292492 C130.50598,81.067941 130.44563,84.4168586 129.600736,86.0158913 C128.786017,87.5545831 127.247102,89.0329341 125.828887,89.6061723 C124.139098,90.3302626 121.513891,90.2095808 119.703404,89.3648088 Z" id="Path"></path>
                        <path d="M0.030174793,110.725472 C0,110.57462 0,110.393597 0,110.303086 C0.090524379,109.760018 7.45317387,89.1234454 8.35841766,86.9210041 C11.4060718,79.5292492 15.5400184,72.1676647 19.7946642,66.5861354 C20.7300828,65.3491479 21.4844526,64.232842 21.4844526,64.0819899 C21.4844526,63.9311377 20.8809568,62.3622754 20.0964121,60.5822202 C17.1694572,53.6731921 16.5056118,52.1043298 10.9232751,38.7991709 C7.7549218,31.2565638 4.82796688,24.3173653 4.43569457,23.382082 C4.01324747,22.4467987 3.68132475,21.5416859 3.68132475,21.3908337 C3.68132475,20.9081069 8.96191352,20.6667434 12.4320147,20.9684477 C18.7385465,21.5416859 23.3854646,22.8993551 28.6660534,25.6750345 C31.8042318,27.3645785 35.4553818,29.8988945 36.8434223,31.3772455 L37.5977921,32.1616766 L35.3950322,34.2434362 L33.1620975,36.2950253 L30.7179393,34.4546292 C26.1615455,31.0152004 19.4325667,28.1791801 14.9063477,27.7567941 L12.7035879,27.5456011 L13.0053358,28.2696914 C13.4277829,29.3558268 18.8592456,42.2989406 20.7300828,46.6434823 C27.4590616,62.3622754 27.9720331,63.810456 27.5194112,65.8017043 C27.3987121,66.3749424 26.4029439,68.034316 25.3468261,69.4824965 C20.8206072,75.6372639 17.5919043,81.4299862 14.2123275,89.5760018 C12.7639374,92.9852602 10.2896044,99.8037771 10.4404784,99.9546292 C10.5913523,100.135652 16.5357866,97.1186089 19.4627415,95.3988945 C22.9931923,93.317135 27.6702852,90.0888991 30.2351426,88.0071396 L32.4982521,86.1667434 L34.5199632,88.3390143 C35.6364305,89.5458314 36.5718491,90.6319668 36.5718491,90.7224781 C36.5718491,91.0241824 32.8905244,93.9205435 29.0281509,96.6358821 C21.725851,101.764855 12.7941122,106.35076 3.98307268,109.488485 C2.41398344,110.061723 0.875068997,110.60479 0.60349586,110.755643 C0.30174793,110.876324 0.030174793,110.846154 0.030174793,110.725472 Z" id="Path"></path>
                    </g>
                </g>
                <g id="generated-(1)" transform="translate(694.000000, 10.000000)" fill="#000000" fill-rule="nonzero">
                    <g id="Group" transform="translate(127.500000, 59.000000) scale(-1, 1) rotate(-180.000000) translate(-127.500000, -59.000000) ">
                        <path d="M49.1855769,117.803333 C43.0339104,117.606667 40.2605769,117.164167 35.9451923,116.869167 C31.6298077,116.525 26.2355769,115.935 23.9798077,115.541667 C21.7240385,115.1975 19.3211538,114.853333 18.6836538,114.853333 C17.9971154,114.853333 15.6432692,114.410833 13.4365385,113.87 C5.7375,112.001667 2.55,109.494167 0.686538462,103.6925 C-0.735576923,99.415 0.196153846,82.6983333 2.25576923,74.7825 C2.84423077,72.57 4.60961538,64.605 4.95288462,62.7366667 C5.7375,58.3116667 11.0826923,39.5791667 12.4557692,36.285 C12.8480769,35.4 13.1423077,34.4166667 13.1423077,34.0725 C13.1423077,33.7775 13.6326923,32.3025 14.1721154,30.7783333 C14.7605769,29.3033333 15.5451923,27.1891667 15.9375,26.1075 C16.3788462,25.0258333 17.1144231,23.2558333 17.6048077,22.125 C18.0951923,20.9941667 18.5365385,19.8633333 18.5365385,19.5683333 C18.5365385,19.2733333 18.8307692,18.4375 19.2230769,17.6508333 C19.6153846,16.9133333 20.7923077,14.5041667 21.8221154,12.3408333 C23.0480769,9.735 24.5192308,7.57166667 26.2355769,5.85083333 C28.5403846,3.58916667 29.0798077,3.29416667 31.5807692,2.95 C33.15,2.75333333 36.2394231,2.75333333 38.4951923,2.90083333 C42.2221154,3.19583333 42.7615385,3.34333333 44.6740385,4.91666667 C46.8317308,6.68666667 48.9403846,9.39083333 52.4711538,15.045 C61.3471154,29.1066667 63.1125,31.6633333 64.9269231,33.4333333 C66.6432692,35.105 66.9375,35.2033333 69.8307692,35.2033333 C74.3423077,35.2033333 74.8326923,34.7116667 82.5317308,22.6658333 C83.3653846,21.3383333 85.3759615,18.1425 86.9942308,15.5858333 C90.8192308,9.53833333 93.0259615,6.68666667 95.4288462,4.81833333 C97.0961538,3.49083333 97.9298077,3.19583333 101.019231,2.95 C103.029808,2.75333333 106.168269,2.8025 107.982692,2.95 C111.023077,3.29416667 111.415385,3.49083333 113.671154,5.70333333 C115.436538,7.42416667 116.760577,9.44 118.280769,12.685 C121.468269,19.5191667 122.007692,20.7975 122.007692,21.535 C122.007692,21.8791667 122.350962,22.6166667 122.743269,23.1083333 C123.135577,23.6491667 123.478846,24.4358333 123.478846,24.8291667 C123.527885,25.2716667 123.920192,26.5008333 124.459615,27.5825 C124.999038,28.6641667 125.391346,29.795 125.440385,30.1391667 C125.440385,30.4833333 125.734615,31.4666667 126.126923,32.3516667 C128.1375,37.2191667 131.423077,48.38 133.531731,57.4758333 C133.875,59.0491667 134.365385,60.7208333 134.5125,61.1633333 C134.708654,61.6058333 135.15,63.425 135.493269,65.195 C135.885577,66.965 136.425,69.5216667 136.719231,70.8491667 C138.239423,77.8308333 138.729808,80.8791667 139.465385,88.3525 C140.151923,95.8258333 140.151923,96.9075 139.416346,101.086667 C138.386538,107.183333 137.0625,109.2975 132.649038,111.805 C129.559615,113.575 120.830769,115.246667 108.522115,116.328333 C107.370138,116.443832 105.654382,116.610204 103.374845,116.827448 L103.374845,116.827447 C99.8997071,117.158635 96.4526099,115.960124 93.9325128,113.544472 C85.2053459,105.179 77.8906622,101.026398 71.9884615,101.086667 C61.3347419,101.195454 55.3372434,118 49.1855769,117.803333 Z" id="Path"></path>
                        <path d="M196.300962,115.394167 C189.975,114.558333 188.503846,114.165 183.305769,112.296667 C168.250962,106.79 157.021154,95.7275 151.528846,80.9283333 C149.567308,75.7166667 148.978846,72.7666667 148.488462,65.6375 C147.654808,54.28 148.929808,42.9225 151.725,35.9408333 C159.669231,16.225 173.792308,4.91666667 195.320192,0.934166667 C201.989423,-0.295 213.709615,-0.295 220.084615,0.934166667 C224.743269,1.81916667 231.461538,3.58916667 232.834615,4.22833333 C233.226923,4.47416667 235.286538,5.40833333 237.395192,6.44083333 C241.955769,8.60416667 247.742308,13.0783333 249.752885,16.0775 C250.5375,17.2575 251.518269,18.4375 251.8125,18.6341667 C252.155769,18.8308333 252.45,19.4208333 252.45,19.8633333 C252.45,20.355 252.793269,21.24 253.234615,21.83 C254.460577,23.6 254.313462,28.2708333 253.038462,30.385 C251.567308,32.7941667 250.5375,33.5316667 248.085577,34.22 C245.682692,34.8591667 242.495192,34.3183333 238.719231,32.6466667 C237.493269,32.1058333 236.071154,31.4666667 235.531731,31.27 C229.598077,28.7133333 217.583654,27.9758333 211.748077,29.8441667 C206.599038,31.4175 204.343269,32.745 201.204808,35.8916667 C197.232692,39.8741667 195.173077,44.0533333 194.4375,49.3633333 C193.996154,52.8541667 193.996154,53.5425 194.682692,54.1816667 C195.369231,54.87 195.565385,54.87 196.840385,54.1325 C201.597115,51.4283333 202.970192,50.74 205.667308,49.9041667 C211.993269,47.9375 226.116346,47.9375 231.853846,49.9533333 C236.806731,51.6741667 239.945192,53.2966667 243.672115,56.1975 C252.842308,63.3266667 256.520192,73.8483333 254.411538,87.025 C252.744231,97.5466667 242.838462,107.8225 230.1375,112.2475 C224.498077,114.214167 223.370192,114.46 218.417308,115.1975 C210.816346,116.328333 203.558654,116.3775 196.300962,115.394167 Z" id="Path"></path>
                    </g>
                </g>
                <g id="generated-(2)" transform="translate(409.000000, 10.000000)" fill="#000000" fill-rule="nonzero">
                    <g id="Group" transform="translate(128.000000, 56.500000) scale(-1, 1) rotate(-180.000000) translate(-128.000000, -56.500000) ">
                        <path d="M251.304142,50.3710952 C251.304142,50.3710952 251.304142,50.3710952 251.304142,50.3710952 C247.323212,52.9749321 242.065929,52.4533483 238.674229,49.1180604 C220.493082,31.2393107 206.979977,22.6376158 198.134911,23.3129762 C191.318343,23.7690119 188.288757,24.8330952 185.259172,27.7213214 C177.07929,35.4739286 177.382249,40.0342857 186.168047,42.0104405 C194.04497,43.6825714 202.073373,50.9791429 205.708876,59.6438214 C212.525444,75.1490357 206.769231,93.0864405 191.772781,103.119226 C174.655621,114.672131 149.35858,109.351714 140.421302,92.4783929 C137.391716,86.8539524 136.937278,83.8137143 136.937278,67.8524643 C136.937278,50.2190833 137.088757,49.155 141.936095,39.4262381 C147.843787,27.2652857 161.628402,13.8882381 175.867456,6.28764286 C183.592899,2.18332143 187.531361,1.1192381 196.923077,0.511190476 C206.92071,-0.0968571429 209.647337,0.359178571 216.615385,3.55142857 C227.824852,8.71983333 238.731361,17.8405476 249.183432,30.4575357 C250.59487,32.1837745 251.977412,33.8133512 253.331056,35.3462659 L253.331038,35.3462814 C256.995687,39.4962596 256.602251,45.8312668 252.452272,49.495916 C252.091093,49.8148564 251.707388,50.1073411 251.304142,50.3710952 C251.304142,50.3710952 251.304142,50.3710952 251.304142,50.3710952 Z M177.230769,85.3338333 C184.501775,81.3815238 186.319527,68.7645357 180.714793,60.251869 C177.988166,56.1475476 170.56568,52.6512738 167.233136,54.019381 C163.446154,55.3874881 159.96213,65.4202738 160.871006,72.7168452 C162.23432,84.8777976 168.747929,89.8941905 177.230769,85.3338333 Z" id="Shape"></path>
                        <path d="M102.551479,110.111774 C98.4615385,105.247393 98.3100592,102.207155 100.733728,73.020869 C102.097041,57.211631 102.702959,43.6825714 102.097041,43.0745238 C101.491124,42.4664762 97.8556213,45.8107381 93.9171598,50.3710952 C71.043787,77.4292143 63.3183432,83.2056667 53.7751479,80.6214643 C47.1100592,78.6453095 44.383432,75.4530595 37.7183432,61.6199762 C34.5372781,54.6274286 31.0532544,48.8509762 30.1443787,48.8509762 C26.9633136,48.8509762 26.9633136,53.7153571 29.9928994,71.1967262 C33.6284024,91.7183333 33.9313609,97.7988095 31.5076923,102.511179 C25.7514793,113.304024 14.8449704,107.37556 4.84733728,88.0700476 C1.21183432,80.9254881 0.60591716,78.0372619 0.15147929,62.2280238 C-0.60591716,41.5544048 1.96923077,27.5693095 8.78579882,12.8241548 C15.147929,-0.552892857 21.3585799,-3.13709524 30.1443787,4.15947619 C36.3550296,9.47989286 45.8982249,23.7690119 51.5029586,36.2339881 C57.4106509,49.3070119 58.6224852,50.9791429 61.5005917,48.5469524 C62.712426,47.634881 68.0142012,40.1862976 73.3159763,32.1296667 C91.4934911,4.3114881 105.126627,-2.98508333 117.39645,8.26379762 C131.332544,21.0327976 134.059172,68.7645357 122.395266,99.6229524 C120.123077,105.703429 118.002367,108.895679 114.972781,110.415798 C109.216568,113.456036 105.278107,113.304024 102.551479,110.111774 Z" id="Path"></path>
                    </g>
                </g>
                <g id="generated-(3)" transform="translate(184.000000, 221.000000)" fill="#000000" fill-rule="nonzero">
                    <g id="Group" transform="translate(68.000000, 68.500000) scale(-1, 1) rotate(-180.000000) translate(-68.000000, -68.500000) ">
                        <path d="M62.9177843,136.563454 C54.867942,135.923765 44.6805709,133.045166 36.9945632,129.161343 C28.7173242,125.003367 17.9842011,115.636499 12.5266809,107.777468 C9.16121013,102.934111 5.52286331,95.6690762 3.70368991,90.2317242 C2.33930985,86.1194405 2.06643384,85.0228315 0.793012458,78.5802538 C-0.025615575,74.6050462 0.11082243,61.5828146 1.02040913,57.1049946 C2.70314453,48.5148909 4.06752459,44.3569152 7.43299539,37.5488012 C15.4373584,21.5108948 29.8543076,9.03696772 46.9545376,3.32546262 C49.9106944,2.36592977 50.7748018,2.13746956 56.5506774,0.949476503 C60.9166935,0.0356356872 74.0602214,-0.101440435 78.6081549,0.675324258 C93.4798975,3.32546262 105.62288,9.53958017 115.719292,19.6375212 C126.634333,30.603611 131.864456,40.5187838 135.229927,56.6480742 C136.184993,61.1715862 136.139514,75.1076587 135.184448,79.951015 C133.68363,87.4445097 133.00144,89.8204958 130.727473,95.2578486 C127.134606,103.756568 121.722565,111.432831 114.309433,118.469405 C107.305615,125.140443 99.3922111,129.892416 90.3418234,132.90809 C85.9303279,134.370236 84.5204685,134.735772 78.6991136,135.878073 C76.0613122,136.426377 66.4196931,136.837606 62.9177843,136.563454 Z M82.9286918,99.2787482 C84.9752618,98.3649074 86.0212866,95.9889213 86.0667659,92.333558 C86.0667659,89.6834197 85.8848485,88.7695789 85.0207412,87.3531256 C84.4295098,86.3935927 83.4744438,85.4340599 82.8832124,85.2055997 C82.2919811,84.9771395 75.6974775,84.7486793 68.1933872,84.7486793 C52.7304132,84.6572952 52.5939752,84.7029872 51.0021985,87.9471221 C49.1830251,91.5567933 49.8197358,96.1716895 52.5030165,98.6847517 L53.7309586,99.8270527 L67.7385938,99.8270527 C77.4711715,99.8270527 82.1100637,99.6442846 82.9286918,99.2787482 Z M36.3123732,84.6572952 C39.4504473,83.0580738 40.4055134,81.2303921 40.4055134,76.8896483 C40.4055134,74.8791985 40.5874307,72.4118283 40.8148274,71.3609113 C41.0422241,70.3099944 41.4970174,68.2081605 41.8153728,66.7003232 C43.1797528,60.2577454 46.863579,53.7237836 49.8197358,52.4900985 C53.3216446,50.9822611 56.8235534,54.6376244 59.7797102,62.7708077 C60.3709415,64.4157211 60.8712142,66.0606346 60.8712142,66.4261709 C60.8712142,67.614164 63.145181,70.1272262 65.055313,71.041067 C67.3747591,72.1833681 68.7391392,72.1833681 71.149544,71.0867591 C73.5144694,69.9901501 74.6969321,68.4823128 75.6519981,65.1924858 C77.1073369,60.3948215 78.6991136,57.0136105 80.654725,54.6833164 C83.7018405,51.1193373 86.7489559,51.2564134 89.5231954,55.1402369 C90.9330548,57.1049946 93.1615422,61.4914305 93.1615422,62.3595793 C93.1615422,62.6337315 93.3434595,63.182036 93.5708562,63.6389564 C94.6623602,65.6950983 95.8903023,73.188593 95.8903023,77.6207209 C95.8903023,81.1847001 97.0272857,83.1494578 99.9834424,84.6572952 C103.530831,86.5306689 107.396574,85.3883678 109.71602,81.8700807 C110.716566,80.2708593 110.898483,79.4940946 110.898483,76.7525721 C110.898483,74.9248905 110.716566,72.3661362 110.489169,70.995375 C110.216293,69.6246138 109.806979,66.9744754 109.488623,65.1011017 C108.35164,58.1559115 105.213566,50.7081089 101.347823,45.8647526 C92.3883935,34.6245105 80.0634936,33.6649777 70.4673539,43.5344585 L68.0569492,46.0475207 L66.2832551,43.9913789 C62.5994289,39.650635 56.641636,36.7720365 51.3205538,36.7720365 C38.9501747,36.7720365 28.7173242,49.702884 26.1250021,68.5736968 C25.1244568,75.7473472 25.1699361,79.3113264 26.2614401,81.5045444 C27.3529442,83.5606862 28.0351342,84.2003748 30.2636216,85.0228315 C32.7195057,85.8909803 34.0384065,85.7995962 36.3123732,84.6572952 Z" id="Shape"></path>
                    </g>
                </g>
                <g id="generated-(4)" transform="translate(353.000000, 250.000000)" fill="#000000" fill-rule="nonzero">
                    <g id="Group" transform="translate(82.000000, 54.000000) scale(-1, 1) rotate(-180.000000) translate(-82.000000, -54.000000) ">
                        <path d="M23.7693002,107.526521 C29.6015693,106.423469 33.5402445,103.380565 36.0776603,97.9794104 C38.7665636,92.3120019 39.4482574,82.1563101 38.5393323,61.0081279 C38.1984854,53.3628318 38.2363573,52.5640696 39.5240011,44.9187735 C40.4329262,39.6317279 43.3490607,35.4096988 47.2498641,33.660029 C48.9540986,32.899303 49.9387674,32.7471578 52.9306457,32.7471578 C56.1876271,32.7471578 56.831449,32.8612667 58.990146,33.8882468 C63.0803088,35.8661344 65.3147495,38.3384938 66.7538809,42.5224867 C67.4355747,44.5003742 67.4734465,45.8316447 67.4734465,60.0952567 C67.4734465,76.3747926 67.5491903,77.0974823 69.2912966,80.5207492 C70.2380936,82.3845279 73.6844344,85.6936859 75.7295158,86.6826296 C76.5626971,87.1010289 78.3805472,87.6335371 79.7439348,87.9378275 C81.7890161,88.3181905 82.5843256,88.3181905 84.4021757,87.8997912 C89.0982884,86.7587022 92.7339887,83.9820524 94.9684294,79.8741321 L96.0667139,77.820172 L96.2939451,60.894019 C96.4075608,50.4720731 96.634792,43.5114304 96.8998952,42.826777 C98.2632827,38.9090383 101.179417,35.6379166 104.815118,33.8502105 C106.898071,32.8612667 107.541893,32.7471578 110.836746,32.7471578 C114.169471,32.7471578 114.737549,32.8612667 116.934118,33.9262831 C123.145106,36.8931144 125.417419,44.2341201 125.0387,60.133293 C124.735725,73.1797435 124.849341,84.5525969 125.303803,88.2801542 C126.023369,94.1757805 128.030578,99.3867534 130.833097,102.619839 C132.3101,104.331472 135.301979,106.233287 137.34706,106.803832 C138.180241,107.03205 139.543629,107.450449 140.37681,107.678667 C142.535507,108.325284 147.83757,107.944921 150.980936,106.994013 C157.949361,104.825944 162.001652,99.1585357 163.668015,89.2310617 C164.425452,84.7047421 163.819502,72.5331265 162.531858,66.5994638 C162.266755,65.4583749 161.925908,63.822814 161.774421,62.9860154 C161.622933,62.1492169 161.282086,60.8559827 161.016983,60.133293 C160.789752,59.4106033 160.448905,58.3075507 160.259546,57.6609336 C158.93403,52.7922873 155.071099,44.3101927 151.776245,39.0231472 C146.663542,30.8453429 138.899807,22.2491394 131.552663,16.6578034 C129.431838,15.0602789 127.576116,13.7290084 127.4625,13.7290084 C127.348884,13.7290084 126.288472,13.0823913 125.114444,12.2455928 C122.6149,10.5719956 115.684346,7.03461982 112.351621,5.77942196 C111.101849,5.28495007 109.738462,4.75244189 109.321871,4.56226039 C108.29933,4.1438611 102.164086,2.31811876 100.23262,1.89971947 C87.5834134,-0.838894046 72.0559437,-0.610676253 61.0352274,2.54633655 C58.2705804,3.34509883 55.3544458,4.25797 54.3319051,4.63833299 C53.4229801,4.98065968 53.2336207,5.05673228 49.6736642,6.50211163 C44.6745764,8.47999917 36.0019165,13.6529358 30.927085,17.6087109 C25.359919,21.9828853 17.1038498,31.1876696 12.7864558,37.8820582 C10.5141431,41.3813977 7.10567419,48.03775 5.78015849,51.5751258 C5.32569596,52.8303236 4.79548968,54.1235578 4.60613029,54.4658845 C4.22741152,55.2266105 2.22020202,62.1872532 1.61425199,64.8878304 C-0.127854365,72.6472354 -0.544445015,86.5304844 0.781070689,92.3500382 C3.0912552,102.581803 9.52947433,107.982957 19.3382905,107.830812 C20.9667813,107.792775 22.9739908,107.64063 23.7693002,107.526521 Z" id="Path"></path>
                    </g>
                </g>
                <path d="M617.970276,363.630329 C620.068046,363.402839 623.081206,362.985774 624.644998,362.644539 C626.20879,362.341219 628.039571,361.999984 628.649832,361.924154 C629.298233,361.810409 630.137341,361.582919 630.556895,361.393344 C630.976449,361.241684 632.19697,360.862535 633.226784,360.59713 C637.689313,359.45968 645.851544,355.630266 651.458311,352.028342 C662.442997,345.014069 671.673184,334.928681 677.470657,323.667929 C679.187014,320.369325 680.102405,318.208171 682.429022,312.103857 C682.696011,311.383472 683.115565,309.942703 683.382554,308.881083 C683.611402,307.857378 683.954673,306.378694 684.14538,305.658309 C684.336086,304.937924 684.603075,303.914219 684.717499,303.383409 C685.175194,301.48766 685.747313,295.876241 685.938019,291.250612 C686.205008,284.994639 685.632889,279.61071 683.763967,270.776518 C683.077424,267.402084 679.682851,258.567891 677.775787,255.003882 C672.664857,245.525134 666.676678,238.093796 659.23913,231.837823 C650.657344,224.709805 640.969462,219.667111 630.137341,216.709742 C625.712954,215.496462 624.416151,215.306887 616.826038,214.434842 C611.943955,213.904032 610.380163,213.866117 606.146482,214.283182 C596.725589,215.117312 590.77555,216.406422 583.376144,219.250046 C578.951757,220.918306 575.44276,222.662395 570.293688,225.771424 C566.822833,227.894664 559.804839,233.506082 559.804839,234.150637 C559.804839,234.529787 560.72023,234.757277 562.779858,234.946852 C567.089822,235.326002 570.980231,236.198047 573.878968,237.487156 C575.786031,238.321286 576.815846,238.207541 578.379638,236.918432 C579.256887,236.198047 585.05436,233.240677 587.838673,232.065313 C589.86016,231.231183 594.780384,229.790413 597.259566,229.297518 C604.010571,227.970494 605.536222,227.856749 612.477933,228.008409 C620.563882,228.235899 624.187303,228.880454 631.510427,231.458673 C643.982622,235.818897 654.967308,244.539345 662.633703,256.141332 C663.892365,258.074996 667.096232,264.141394 667.706492,265.847569 C667.973481,266.567954 668.316752,267.515829 668.507459,267.932894 C671.062924,274.795507 672.321586,281.696035 672.321586,289.165288 C672.321586,292.198487 672.169021,295.421261 671.978314,296.293306 C671.787608,297.165351 671.406195,299.099015 671.177348,300.539785 C670.414522,304.786264 668.469318,311.231812 667.172514,313.620457 C666.867384,314.151267 666.104559,315.667866 665.456157,317.032806 C663.7398,320.520985 659.887532,326.208233 656.912513,329.620583 C648.597716,339.25099 634.752435,347.137308 622.356522,349.260548 C620.983436,349.488037 619.152655,349.867187 618.275406,350.056762 C617.398157,350.246337 614.041725,350.397997 610.837858,350.397997 C605.421798,350.397997 602.256073,350.018847 596.992577,348.881398 C595.962763,348.653908 594.513395,348.350588 593.826852,348.236843 C593.140309,348.123098 592.491908,347.895608 592.377484,347.706033 C592.26306,347.516458 591.767223,347.364798 591.271387,347.364798 C590.77555,347.364798 590.279714,347.213138 590.16529,347.023563 C590.050866,346.833988 589.516889,346.568583 588.982911,346.454838 C588.448933,346.303178 586.885141,345.696538 585.512055,345.089899 C584.177111,344.445344 582.994731,343.952449 582.918449,343.952449 C582.498895,343.952449 575.328336,339.440565 573.34499,337.96188 C568.23406,334.056636 561.406773,326.663213 558.431753,321.77218 C556.906103,319.231875 554.960898,315.212886 554.655768,313.885862 C554.503203,313.317137 554.236214,312.748412 554.045507,312.634667 C553.854801,312.520922 553.702236,311.952197 553.702236,311.383472 C553.702236,310.814747 553.549671,310.208108 553.397106,310.018533 C553.053834,309.601468 552.443574,305.961629 551.757031,300.008975 C551.375619,296.862031 551.375619,293.449682 551.757031,284.084679 C552.02402,277.487471 552.405433,271.079838 552.63428,269.828643 C553.587812,264.293054 555.456734,262.43522 560.071828,262.43522 C562.703576,262.43522 564.267368,263.003945 566.021866,264.672204 C568.386625,266.833359 568.348484,266.567954 568.615473,282.71974 C568.84432,298.757781 568.691755,297.544501 571.132796,302.62511 C572.4296,305.317074 577.578671,310.435598 580.210419,311.686792 C584.367817,313.620457 586.046033,313.999607 590.546703,313.999607 C596.649306,313.999607 601.226258,312.141772 605.536222,308.009038 C608.358676,305.241244 609.769903,303.080089 611.257412,299.250675 C612.210944,296.786201 612.210944,296.596626 612.439792,282.151015 C612.630498,267.553744 612.630498,267.553744 613.545889,266.075059 C614.041725,265.278844 615.262246,264.141394 616.215778,263.534755 C617.665146,262.624795 618.313547,262.43522 620.411317,262.43522 C623.538901,262.43522 625.407824,263.383095 627.200463,265.923399 L628.497267,267.705404 L628.535408,286.966219 C628.573549,297.620331 628.726114,306.530354 628.91682,306.909503 C629.221951,307.516143 629.832211,307.554058 635.629684,307.478228 L641.999276,307.364483 L642.1137,287.459113 C642.228124,268.198298 642.075559,264.937609 641.045744,262.81437 C637.91816,256.444651 635.248271,253.487282 630.480613,251.060723 C627.314887,249.468293 624.378009,248.785823 620.373176,248.785823 C616.444625,248.785823 614.575703,249.164973 611.028565,250.757403 C607.977263,252.122343 603.36217,256.444651 601.56953,259.591596 C598.785217,264.558459 598.55637,266.075059 598.55637,281.96144 C598.518228,292.729297 598.441946,295.004197 597.946109,295.800411 C596.000904,299.023185 593.712428,300.42604 590.47042,300.42604 C589.173617,300.42604 587.686108,300.19855 587.190271,299.97106 C585.779044,299.250675 583.071014,296.444966 583.071014,295.762496 C583.071014,295.383346 582.918449,294.966282 582.689601,294.852537 C582.460754,294.700877 582.308189,289.961503 582.308189,281.88561 C582.308189,274.416357 582.117482,268.084553 581.888635,266.643784 C580.85882,260.425725 575.862314,253.676857 570.408112,251.098638 C566.326996,249.164973 564.572498,248.785823 559.995546,248.785823 C553.320823,248.785823 548.629447,250.643658 544.891603,254.776392 C540.00952,260.160321 538.712717,265.468419 538.21688,281.771865 C537.721044,297.658246 538.064315,306.037459 539.361118,310.776832 C539.666249,311.838452 540.276509,314.037522 540.734204,315.705781 C542.71755,323.023374 548.667588,332.805442 555.723723,340.31261 C561.597479,346.606498 569.263874,352.331662 576.586998,355.895671 C578.570344,356.881461 580.515549,357.829335 580.85882,357.980995 C581.469081,358.32223 584.329676,359.38385 587.45726,360.44547 C590.47042,361.431259 598.670793,363.289094 600.272727,363.327009 C601.188117,363.327009 602.713768,363.478669 603.6673,363.630329 C606.260906,364.123224 613.698454,364.123224 617.970276,363.630329 Z" id="Path" fill="#000000" fill-rule="nonzero" transform="translate(612.000000, 289.000000) scale(-1, 1) rotate(-180.000000) translate(-612.000000, -289.000000) "></path>
                <text id="1-Vote" font-family="AvenirNext-Medium, Avenir Next" font-size="18" font-weight="400" letter-spacing="-0.047619015" fill="#000000">
                    <tspan x="41.691857" y="168">1 Vote</tspan>
                </text>
                <text id="10-Votes" font-family="AvenirNext-Medium, Avenir Next" font-size="18" font-weight="400" letter-spacing="-0.047619015" fill="#000000">
                    <tspan x="234.388476" y="165">10 Votes</tspan>
                </text>
                <text id="6-Votes" font-family="AvenirNext-Medium, Avenir Next" font-size="18" font-weight="400" letter-spacing="-0.047619015" fill="#000000">
                    <tspan x="470.719667" y="168">6 Votes</tspan>
                </text>
                <text id="9-Votes" font-family="AvenirNext-Medium, Avenir Next" font-size="18" font-weight="400" letter-spacing="-0.047619015" fill="#000000">
                    <tspan x="784.719667" y="175">9 Votes</tspan>
                </text>
                <text id="1-Vote-Copy" font-family="AvenirNext-Medium, Avenir Next" font-size="18" font-weight="400" letter-spacing="-0.047619015" fill="#000000">
                    <tspan x="225.691857" y="395">1 Vote</tspan>
                </text>
                <text id="1-Vote-Copy-2" font-family="AvenirNext-Medium, Avenir Next" font-size="18" font-weight="400" letter-spacing="-0.047619015" fill="#000000">
                    <tspan x="410.691857" y="395">1 Vote</tspan>
                </text>
                <text id="1-Vote-Copy-3" font-family="AvenirNext-Medium, Avenir Next" font-size="18" font-weight="400" letter-spacing="-0.047619015" fill="#000000">
                    <tspan x="600.691857" y="399">1 Vote</tspan>
                </text>
            </g>
        </g>
    </g>
</svg>