<?xml version="1.0" encoding="UTF-8"?>
<svg width="663px" height="263px" viewBox="0 0 663 263" version="1.1" xmlns="http://www.w3.org/2000/svg" xmlns:xlink="http://www.w3.org/1999/xlink">
    <!-- Generator: Sketch 58 (84663) - https://sketch.com -->
    <title>Group 24</title>
    <desc>Created with Sketch.</desc>
    <g id="Page-1" stroke="none" stroke-width="1" fill="none" fill-rule="evenodd">
        <g id="Desktop" transform="translate(-389.000000, -16704.000000)">
            <g id="Group-24" transform="translate(389.000000, 16705.000000)">
                <rect id="Rectangle-Copy-10" fill="#000000" x="0" y="0" width="317" height="261" rx="130.5"></rect>
                <rect id="Rectangle-Copy-11" stroke="#979797" fill="#FFFFFF" x="345" y="0" width="317" height="261" rx="130.5"></rect>
                <g id="generated-copy-4" transform="translate(84.000000, 71.000000)" fill-rule="nonzero">
                    <g id="Group" transform="translate(74.500000, 59.500000) scale(-1, 1) rotate(-180.000000) translate(-74.500000, -59.500000) ">
                        <path d="M85.8634775,118.945187 C64.5346826,117.520037 45.7828887,105.02257 36.1602576,85.7830493 C32.2125115,77.8899125 30.3208832,70.2708429 30.0193192,60.8703363 C29.6355106,48.8935974 33.1446182,36.7250115 39.9435143,26.4748964 C42.7672493,22.2542607 44.4669733,20.1987563 48.25023,16.5536619 C57.2423183,7.94795025 68.1534499,2.49401198 80.3804968,0.520727775 C84.7394664,-0.16444035 94.3072677,-0.16444035 98.7484821,0.5481345 C111.057774,2.46660525 122.654278,8.4412713 131.618951,17.4580838 C142.968721,28.8318747 149,43.357439 149,59.3629664 C149,72.4907877 145.107084,84.3853063 137.430911,94.7176416 C131.701196,102.446338 124.326587,108.640258 115.773137,112.915707 C110.975529,115.354906 103.737994,117.547444 97.926035,118.397052 C94.9652254,118.83556 88.5227231,119.109627 85.8634775,118.945187 Z M98.200184,112.669047 C103.820239,111.709811 108.837167,110.120221 113.60736,107.708429 C119.172585,104.912943 123.092916,102.090051 127.424471,97.7871948 C135.758602,89.5103639 140.638454,79.8906034 142.804232,67.4479503 C143.517019,63.2547213 143.46219,55.0601105 142.667157,50.5928144 C141.570561,44.4811147 140.336891,40.8360203 137.485741,35.1354215 C134.607176,29.3800092 130.988408,24.6112391 126.108556,20.0891294 C121.448022,15.7588669 122.709108,16.1973745 115.06035,16.1973745 C107.713155,16.1973745 103.628335,16.7181023 98.5017479,18.2802856 C95.7876725,19.1024873 92.0044158,20.5824505 91.4561178,21.0209581 C91.2642134,21.1853984 91.0448942,21.130585 90.8529899,20.9387379 C90.6610856,20.6646707 88.9887764,17.540304 88.3856486,16.3070014 C88.275989,16.0603409 91.3464581,14.6351912 94.499172,13.456702 C98.0905244,12.1137725 102.31242,11.1819438 107.247102,10.6064026 C111.386753,10.1404883 111.468997,10.1130815 110.673965,9.70198065 C109.24839,8.96199908 103.902484,7.29018885 100.64011,6.577614 C96.3085557,5.61837863 87.1793928,5.34431138 82.3543698,6.05688623 C73.1155474,7.39981575 65.1652254,10.6886228 57.3519779,16.4714417 C46.0844526,24.7482727 38.0518859,38.5338554 36.4069917,52.3742515 C34.2960442,69.8597421 39.9435143,85.9200829 52.4721251,98.170889 C61.2174793,106.721787 71.6899724,111.572778 85.0410304,113.189774 C87.0697332,113.436435 95.7054278,113.107554 98.200184,112.669047 Z" id="Shape" fill="#FFFFFF"></path>
                        <path d="M97.5148114,97.869415 C82.7930083,95.8413174 71.0320147,83.4534777 69.7160994,68.5442193 C68.7017479,57.0333947 73.5816007,46.2351451 82.9849126,39.2738369 C91.1819687,33.189544 101.901196,31.4629203 112.126955,34.587287 C121.310948,37.3827729 129.508004,45.3033164 132.825207,54.5667895 C136.389144,64.5976509 134.716835,76.4921695 128.521067,84.7415937 C121.119043,94.6354215 109.577369,99.5412252 97.5148114,97.869415 Z M108.672677,91.4562414 C113.579945,90.1681253 117.363201,88.0304007 120.981969,84.4401198 C127.917939,77.5884385 130.577185,67.9960848 128.192088,58.4859512 C127.64379,56.3208199 125.395768,51.5520497 124.052438,49.6883924 C121.228703,45.7966375 117.226127,42.5352372 113.004232,40.7263934 C108.809752,38.8901428 107.713155,38.6982957 102.175345,38.670889 C97.8712052,38.670889 96.9665133,38.7531092 95.1022999,39.3012437 C86.4391904,41.7952556 79.5032199,48.3728696 76.624655,56.7593275 C74.6781969,62.487333 74.7330267,68.1879318 76.8165593,74.2722248 C78.0776449,77.9995394 79.2564857,79.9180101 82.6559338,83.8097651 C86.0827967,87.7289268 91.5931923,90.7436665 97.3229071,91.8399355 C100.228887,92.38807 105.848942,92.1962229 108.672677,91.4562414 Z" id="Shape" fill="#FFB700"></path>
                        <path d="M108.754922,81.1787195 C106.314995,80.027637 105.05391,78.0543528 105.05391,75.3136803 C105.05391,73.1759558 105.574793,71.8878397 107.027783,70.4078766 C110.235327,67.1464763 115.636063,68.0508982 117.829255,72.2441271 C118.569457,73.6418701 118.514627,76.6840166 117.74701,78.136573 C117.006808,79.534316 115.608648,80.8772455 114.320147,81.3979733 C112.784913,82.0557347 110.399816,81.9461078 108.754922,81.1787195 Z" id="Path" fill="#FFFFFF"></path>
                        <path d="M0.0274149034,100.582681 C0,100.445647 0,100.281207 0,100.198987 C0.0822447102,99.7056656 6.77148114,80.9594657 7.59392824,78.9587748 C10.3628335,72.2441271 14.1186753,65.5568862 17.9841766,60.4866421 C18.8340386,59.3629664 19.5194112,58.3489175 19.5194112,58.2118839 C19.5194112,58.0748503 18.9711132,56.6497006 18.2583257,55.0327038 C15.59908,48.7565638 14.9959522,47.3314141 9.92419503,35.2450484 C7.04563017,28.3933671 4.38638454,22.0898204 4.0299908,21.2402119 C3.64618215,20.3906034 3.34461822,19.5684017 3.34461822,19.431368 C3.34461822,18.9928604 8.14222631,18.7736066 11.2949402,19.0476739 C17.024655,19.5684017 21.2465501,20.8017043 26.0441582,23.323123 C28.8953082,24.8578996 32.2125115,27.1600645 33.4735971,28.502994 L34.1589696,29.2155689 L32.1576817,31.1066329 L30.1289788,32.9702902 L27.9083717,31.29848 C23.7687213,28.1741133 17.6551978,25.5978812 13.5429623,25.214187 L11.5416743,25.0223399 L11.8158234,25.6801013 C12.199632,26.6667434 17.1343146,38.4242285 18.8340386,42.3707969 C24.9475621,56.6497006 25.4136155,57.9652234 25.0023919,59.7740673 C24.8927323,60.294795 23.9880405,61.8021649 23.0285189,63.1176877 C18.9162833,68.7086596 15.9828887,73.9707508 12.9124195,81.3705666 C11.5965041,84.4675265 9.34848206,90.6614463 9.48555658,90.79848 C9.62263109,90.9629203 15.0233671,88.2222478 17.6826127,86.6600645 C20.8901564,84.7690005 25.1394664,81.8364809 27.4697332,79.9454169 L29.525851,78.2736066 L31.3626495,80.2468908 C32.3770009,81.3431598 33.2268629,82.3298019 33.2268629,82.4120221 C33.2268629,82.6860894 29.8822447,85.317135 26.3731371,87.7837402 C19.7387305,92.4428835 11.623919,96.6087057 3.61876725,99.4590051 C2.19319227,99.9797328 0.795032199,100.473054 0.548298068,100.610088 C0.274149034,100.719714 0.0274149034,100.692308 0.0274149034,100.582681 Z" id="Path" fill="#FFFFFF"></path>
                    </g>
                </g>
                <g id="generated-copy-5" transform="translate(429.000000, 71.000000)" fill-rule="nonzero">
                    <g id="Group" transform="translate(74.500000, 59.500000) scale(-1, 1) rotate(-180.000000) translate(-74.500000, -59.500000) ">
                        <path d="M85.8634775,118.945187 C64.5346826,117.520037 45.7828887,105.02257 36.1602576,85.7830493 C32.2125115,77.8899125 30.3208832,70.2708429 30.0193192,60.8703363 C29.6355106,48.8935974 33.1446182,36.7250115 39.9435143,26.4748964 C42.7672493,22.2542607 44.4669733,20.1987563 48.25023,16.5536619 C57.2423183,7.94795025 68.1534499,2.49401198 80.3804968,0.520727775 C84.7394664,-0.16444035 94.3072677,-0.16444035 98.7484821,0.5481345 C111.057774,2.46660525 122.654278,8.4412713 131.618951,17.4580838 C142.968721,28.8318747 149,43.357439 149,59.3629664 C149,72.4907877 145.107084,84.3853063 137.430911,94.7176416 C131.701196,102.446338 124.326587,108.640258 115.773137,112.915707 C110.975529,115.354906 103.737994,117.547444 97.926035,118.397052 C94.9652254,118.83556 88.5227231,119.109627 85.8634775,118.945187 Z M98.200184,112.669047 C103.820239,111.709811 108.837167,110.120221 113.60736,107.708429 C119.172585,104.912943 123.092916,102.090051 127.424471,97.7871948 C135.758602,89.5103639 140.638454,79.8906034 142.804232,67.4479503 C143.517019,63.2547213 143.46219,55.0601105 142.667157,50.5928144 C141.570561,44.4811147 140.336891,40.8360203 137.485741,35.1354215 C134.607176,29.3800092 130.988408,24.6112391 126.108556,20.0891294 C121.448022,15.7588669 122.709108,16.1973745 115.06035,16.1973745 C107.713155,16.1973745 103.628335,16.7181023 98.5017479,18.2802856 C95.7876725,19.1024873 92.0044158,20.5824505 91.4561178,21.0209581 C91.2642134,21.1853984 91.0448942,21.130585 90.8529899,20.9387379 C90.6610856,20.6646707 88.9887764,17.540304 88.3856486,16.3070014 C88.275989,16.0603409 91.3464581,14.6351912 94.499172,13.456702 C98.0905244,12.1137725 102.31242,11.1819438 107.247102,10.6064026 C111.386753,10.1404883 111.468997,10.1130815 110.673965,9.70198065 C109.24839,8.96199908 103.902484,7.29018885 100.64011,6.577614 C96.3085557,5.61837863 87.1793928,5.34431138 82.3543698,6.05688623 C73.1155474,7.39981575 65.1652254,10.6886228 57.3519779,16.4714417 C46.0844526,24.7482727 38.0518859,38.5338554 36.4069917,52.3742515 C34.2960442,69.8597421 39.9435143,85.9200829 52.4721251,98.170889 C61.2174793,106.721787 71.6899724,111.572778 85.0410304,113.189774 C87.0697332,113.436435 95.7054278,113.107554 98.200184,112.669047 Z" id="Shape" fill="#000000"></path>
                        <path d="M97.5148114,97.869415 C82.7930083,95.8413174 71.0320147,83.4534777 69.7160994,68.5442193 C68.7017479,57.0333947 73.5816007,46.2351451 82.9849126,39.2738369 C91.1819687,33.189544 101.901196,31.4629203 112.126955,34.587287 C121.310948,37.3827729 129.508004,45.3033164 132.825207,54.5667895 C136.389144,64.5976509 134.716835,76.4921695 128.521067,84.7415937 C121.119043,94.6354215 109.577369,99.5412252 97.5148114,97.869415 Z M108.672677,91.4562414 C113.579945,90.1681253 117.363201,88.0304007 120.981969,84.4401198 C127.917939,77.5884385 130.577185,67.9960848 128.192088,58.4859512 C127.64379,56.3208199 125.395768,51.5520497 124.052438,49.6883924 C121.228703,45.7966375 117.226127,42.5352372 113.004232,40.7263934 C108.809752,38.8901428 107.713155,38.6982957 102.175345,38.670889 C97.8712052,38.670889 96.9665133,38.7531092 95.1022999,39.3012437 C86.4391904,41.7952556 79.5032199,48.3728696 76.624655,56.7593275 C74.6781969,62.487333 74.7330267,68.1879318 76.8165593,74.2722248 C78.0776449,77.9995394 79.2564857,79.9180101 82.6559338,83.8097651 C86.0827967,87.7289268 91.5931923,90.7436665 97.3229071,91.8399355 C100.228887,92.38807 105.848942,92.1962229 108.672677,91.4562414 Z" id="Shape" fill="#FFB700"></path>
                        <path d="M108.754922,81.1787195 C106.314995,80.027637 105.05391,78.0543528 105.05391,75.3136803 C105.05391,73.1759558 105.574793,71.8878397 107.027783,70.4078766 C110.235327,67.1464763 115.636063,68.0508982 117.829255,72.2441271 C118.569457,73.6418701 118.514627,76.6840166 117.74701,78.136573 C117.006808,79.534316 115.608648,80.8772455 114.320147,81.3979733 C112.784913,82.0557347 110.399816,81.9461078 108.754922,81.1787195 Z" id="Path" fill="#000000"></path>
                        <path d="M0.0274149034,100.582681 C0,100.445647 0,100.281207 0,100.198987 C0.0822447102,99.7056656 6.77148114,80.9594657 7.59392824,78.9587748 C10.3628335,72.2441271 14.1186753,65.5568862 17.9841766,60.4866421 C18.8340386,59.3629664 19.5194112,58.3489175 19.5194112,58.2118839 C19.5194112,58.0748503 18.9711132,56.6497006 18.2583257,55.0327038 C15.59908,48.7565638 14.9959522,47.3314141 9.92419503,35.2450484 C7.04563017,28.3933671 4.38638454,22.0898204 4.0299908,21.2402119 C3.64618215,20.3906034 3.34461822,19.5684017 3.34461822,19.431368 C3.34461822,18.9928604 8.14222631,18.7736066 11.2949402,19.0476739 C17.024655,19.5684017 21.2465501,20.8017043 26.0441582,23.323123 C28.8953082,24.8578996 32.2125115,27.1600645 33.4735971,28.502994 L34.1589696,29.2155689 L32.1576817,31.1066329 L30.1289788,32.9702902 L27.9083717,31.29848 C23.7687213,28.1741133 17.6551978,25.5978812 13.5429623,25.214187 L11.5416743,25.0223399 L11.8158234,25.6801013 C12.199632,26.6667434 17.1343146,38.4242285 18.8340386,42.3707969 C24.9475621,56.6497006 25.4136155,57.9652234 25.0023919,59.7740673 C24.8927323,60.294795 23.9880405,61.8021649 23.0285189,63.1176877 C18.9162833,68.7086596 15.9828887,73.9707508 12.9124195,81.3705666 C11.5965041,84.4675265 9.34848206,90.6614463 9.48555658,90.79848 C9.62263109,90.9629203 15.0233671,88.2222478 17.6826127,86.6600645 C20.8901564,84.7690005 25.1394664,81.8364809 27.4697332,79.9454169 L29.525851,78.2736066 L31.3626495,80.2468908 C32.3770009,81.3431598 33.2268629,82.3298019 33.2268629,82.4120221 C33.2268629,82.6860894 29.8822447,85.317135 26.3731371,87.7837402 C19.7387305,92.4428835 11.623919,96.6087057 3.61876725,99.4590051 C2.19319227,99.9797328 0.795032199,100.473054 0.548298068,100.610088 C0.274149034,100.719714 0.0274149034,100.692308 0.0274149034,100.582681 Z" id="Path" fill="#000000"></path>
                    </g>
                </g>
            </g>
        </g>
    </g>
</svg>