<?xml version="1.0" encoding="UTF-8"?>
<svg width="1342px" height="1074px" viewBox="0 0 1342 1074" version="1.1" xmlns="http://www.w3.org/2000/svg" xmlns:xlink="http://www.w3.org/1999/xlink">
    <!-- Generator: Sketch 58 (84663) - https://sketch.com -->
    <title>Group 17</title>
    <desc>Created with Sketch.</desc>
    <defs>
        <path d="M170.512,85.227 C170.512,38.282 132.455,0.227 85.512,0.227 C38.566,0.227 0.512,38.282 0.512,85.227 C0.512,132.171 38.566,170.228 85.512,170.228 C132.455,170.228 170.512,132.171 170.512,85.227 L170.512,85.227 Z" id="path-1"></path>
        <path d="M170.51,85.518 C170.51,38.573 132.454,0.517 85.51,0.517 C38.564,0.517 0.51,38.573 0.51,85.518 C0.51,132.462 38.564,170.519 85.51,170.519 C132.454,170.519 170.51,132.462 170.51,85.518" id="path-3"></path>
        <path d="M170.47,85.877 C170.47,38.933 132.414,0.876 85.47,0.876 C38.525,0.876 0.47,38.933 0.47,85.877 C0.47,132.82 38.525,170.877 85.47,170.877 C132.414,170.877 170.47,132.82 170.47,85.877 L170.47,85.877 Z" id="path-5"></path>
        <path d="M170.532,85.227 C170.532,38.283 132.477,0.227 85.532,0.227 C38.588,0.227 0.532,38.283 0.532,85.227 C0.532,132.172 38.588,170.229 85.532,170.229 C132.477,170.229 170.532,132.172 170.532,85.227" id="path-7"></path>
        <path d="M170.488,85.876 C170.488,38.932 132.433,0.876 85.488,0.876 C38.543,0.876 0.488,38.932 0.488,85.876 C0.488,132.82 38.543,170.877 85.488,170.877 C132.433,170.877 170.488,132.82 170.488,85.876" id="path-9"></path>
        <path d="M170.512,85.866 C170.512,38.922 132.456,0.866 85.512,0.866 C38.566,0.866 0.512,38.922 0.512,85.866 C0.512,132.811 38.566,170.867 85.512,170.867 C132.456,170.867 170.512,132.811 170.512,85.866" id="path-11"></path>
        <path d="M170.47,85.227 C170.47,38.282 132.414,0.227 85.469,0.227 C38.524,0.227 0.47,38.282 0.47,85.227 C0.47,132.172 38.524,170.229 85.469,170.229 C132.414,170.229 170.47,132.172 170.47,85.227" id="path-13"></path>
        <path d="M170.469,85.773 C170.469,38.829 132.414,0.773 85.469,0.773 C38.525,0.773 0.471,38.829 0.471,85.773 C0.471,132.718 38.525,170.773 85.469,170.773 C132.414,170.773 170.469,132.718 170.469,85.773" id="path-15"></path>
    </defs>
    <g id="Page-1" stroke="none" stroke-width="1" fill="none" fill-rule="evenodd">
        <g id="Desktop" transform="translate(-68.000000, -8876.000000)">
            <g id="Group-17" transform="translate(68.000000, 8876.000000)">
                <rect id="Rectangle" fill="#FFFFFF" x="0" y="0" width="1342" height="1074"></rect>
                <g id="Group-16" transform="translate(40.000000, 28.000000)">
                    <text id="I-want-to-create-an" font-family="Montserrat-Medium, Montserrat Medium" font-size="21" font-weight="normal" letter-spacing="-0.0555555175" fill="#000000">
                        <tspan x="48.3762774" y="265">I want to create an </tspan>
                        <tspan x="28.6183329" y="290">account by signing up </tspan>
                        <tspan x="68.5901109" y="315">with Facebook</tspan>
                    </text>
                    <text id="I-want-to-be-able-to" font-family="Montserrat-Medium, Montserrat Medium" font-size="21" font-weight="normal" letter-spacing="-0.0555555175" fill="#000000">
                        <tspan x="1006.55794" y="216">I want to be able to edit </tspan>
                        <tspan x="1077.7235" y="241">my profile</tspan>
                    </text>
                    <text id="I-want-to-be-able-to" font-family="Montserrat-Medium, Montserrat Medium" font-size="21" font-weight="normal" letter-spacing="-0.0555555175" fill="#000000">
                        <tspan x="748.985444" y="467">I want to be able to post </tspan>
                        <tspan x="822.485055" y="492">an activity</tspan>
                    </text>
                    <text id="I-want-to-be-able-to" font-family="Montserrat-Medium, Montserrat Medium" font-size="21" font-weight="normal" letter-spacing="-0.0555555175" fill="#000000">
                        <tspan x="327.281166" y="571">I want to be able to see </tspan>
                        <tspan x="366.370944" y="596">my past activity</tspan>
                    </text>
                    <text id="I-want-to-be-able-to" font-family="Montserrat-Medium, Montserrat Medium" font-size="21" font-weight="normal" letter-spacing="-0.0555555175" fill="#000000">
                        <tspan x="895.281166" y="815">I want to be able to see </tspan>
                        <tspan x="946.541111" y="840">others profile</tspan>
                    </text>
                    <text id="I-want-to-be-able-to" font-family="Montserrat-Medium, Montserrat Medium" font-size="21" font-weight="normal" letter-spacing="-0.0555555175" fill="#000000">
                        <tspan x="29.1070552" y="784">I want to be able to </tspan>
                        <tspan x="9.66038845" y="809">show interest in others </tspan>
                        <tspan x="92.6557221" y="834">activity</tspan>
                    </text>
                    <text id="I-want-to-see-the-li" font-family="Montserrat-Medium, Montserrat Medium" font-size="21" font-weight="normal" letter-spacing="-0.0555555175" fill="#000000">
                        <tspan x="409.721444" y="962">I want to see the list of </tspan>
                        <tspan x="406.789555" y="987">people who has shown </tspan>
                        <tspan x="429.053277" y="1012">interest to my post</tspan>
                    </text>
                    <text id="I-want-to-create-a-p" font-family="Montserrat-Medium, Montserrat Medium" font-size="21" font-weight="normal" letter-spacing="-0.0555555175" fill="#000000">
                        <tspan x="421.029944" y="205">I want to create a profile </tspan>
                        <tspan x="497.746278" y="230">for myself</tspan>
                    </text>
                    <path d="M963,345.9995 C963,299.055224 924.944,261 878.001,261 C831.056,261 793,299.055224 793,345.9995 C793,392.943776 831.056,431 878.001,431 C924.944,431 963,392.943776 963,345.9995" id="Fill-103" fill="#E99B2E"></path>
                    <path d="M963,345.9995 C963,299.055224 924.943552,261 878,261 L878,431 C924.943552,431 963,392.943776 963,345.9995" id="Fill-104" fill="#E1942E"></path>
                    <g id="Group-116" transform="translate(792.000000, 261.000000)">
                        <mask id="mask-2" fill="white">
                            <use xlink:href="#path-1"></use>
                        </mask>
                        <g id="Clip-106"></g>
                        <polygon id="Fill-105" fill="#CFA085" mask="url(#mask-2)" points="73.381 133.959 98.273 133.959 98.273 106.664 73.381 106.664"></polygon>
                        <path d="M98.116,121.187 L102.361,121.187 C110.27,123.225 118.923,124.67 124.683,131.339 C128.271,135.494 134.505,170.228 134.505,170.228 L85.669,170.228 L85.669,130.904 C92.543,130.904 98.116,126.554 98.116,121.187" id="Fill-107" fill="#B63E42" mask="url(#mask-2)"></path>
                        <path d="M73.222,121.187 L68.985,121.187 C61.077,123.225 52.415,124.67 46.655,131.339 C43.066,135.494 36.833,170.228 36.833,170.228 L85.669,170.228 L85.669,130.904 C78.795,130.904 73.222,126.554 73.222,121.187" id="Fill-108" fill="#B63E42" mask="url(#mask-2)"></path>
                        <path d="M85.826,28.561 C97.912,28.561 117.025,35.432 117.025,67.627 C117.025,86.217 110.965,98.395 108.324,101.764 C105.895,104.863 92.234,111.468 85.826,111.468 C85.826,78.93 85.826,28.561 85.826,28.561" id="Fill-109" fill="#E3BB9F" mask="url(#mask-2)"></path>
                        <path d="M123.037,75.304 C123.57,70.16 121.119,65.595 117.564,65.106 C114.007,64.619 110.693,68.395 110.159,73.539 C109.626,78.682 112.077,83.246 115.635,83.734 C119.189,84.221 122.504,80.446 123.037,75.304" id="Fill-110" fill="#E3BB9F" mask="url(#mask-2)"></path>
                        <path d="M85.826,28.561 C73.74,28.561 54.627,35.432 54.627,67.627 C54.627,86.217 60.687,98.395 63.328,101.764 C65.758,104.863 79.417,111.468 85.826,111.468 C85.826,78.93 85.826,28.561 85.826,28.561" id="Fill-111" fill="#EFD4B6" mask="url(#mask-2)"></path>
                        <path d="M48.615,75.304 C48.082,70.16 50.533,65.595 54.088,65.106 C57.645,64.619 60.959,68.395 61.492,73.539 C62.026,78.682 59.574,83.246 56.018,83.734 C52.463,84.221 49.147,80.446 48.615,75.304" id="Fill-112" fill="#EFD4B6" mask="url(#mask-2)"></path>
                        <path d="M85.826,99.322 C91.46,99.322 96.026,97.461 96.026,95.166 L75.627,95.166 C75.627,97.461 80.193,99.322 85.826,99.322" id="Fill-113" fill="#FFFFFE" mask="url(#mask-2)"></path>
                        <path d="M110.969,70.18 C112.27,66.859 114.844,64.733 117.564,65.106 C117.57,65.107 117.578,65.109 117.585,65.111 C118.818,61.292 119.261,56.752 117.568,51.934 C108.568,26.311 118.791,21.736 118.791,21.736 C118.791,21.736 108.838,21.291 101.117,27.682 C106.441,19.428 108.838,17.297 108.838,17.297 C108.838,17.297 97.656,14.901 85.676,27.148 C88.338,20.492 91.533,17.107 91.533,17.107 C91.533,17.107 66.506,17.297 57.453,35.402 C52.293,45.722 51.895,56.901 53.144,65.352 C53.449,65.241 53.762,65.151 54.088,65.106 C55.269,64.945 56.42,65.26 57.453,65.932 C57.453,62.027 57.453,58.574 57.453,58.033 C62.246,55.902 67.305,53.24 67.038,42.59 C78.221,42.59 84.344,42.59 84.344,42.59 L102.182,42.59 C102.182,42.59 101.383,54.572 110.969,57.5 C110.969,62.496 110.969,66.905 110.969,70.18" id="Fill-114" fill="#483428" mask="url(#mask-2)"></path>
                        <path d="M85.674,134.057 C94.889,134.057 102.361,128.295 102.361,121.187 L98.086,121.187 C98.086,126.544 92.531,130.889 85.674,130.903 C78.814,130.889 73.261,126.544 73.261,121.187 L68.985,121.187 C68.985,128.295 76.457,134.057 85.674,134.057" id="Fill-115" fill="#1D8C80" mask="url(#mask-2)"></path>
                    </g>
                    <path d="M536,450.999 C536,404.055 497.944,366 450.999,366 C404.053,366 366,404.055 366,450.999 C366,497.943 404.053,536 450.999,536 C497.944,536 536,497.943 536,450.999" id="Fill-154" fill="#52446F"></path>
                    <path d="M536,450.999 C536,404.055 497.944448,366 451,366 L451,536 C497.944448,536 536,497.943 536,450.999" id="Fill-155" fill="#4B3E67"></path>
                    <g id="Group-172" transform="translate(365.000000, 365.000000)">
                        <mask id="mask-4" fill="white">
                            <use xlink:href="#path-3"></use>
                        </mask>
                        <g id="Clip-157"></g>
                        <path d="M52.783,70.37 C52.783,84.608 44.969,84.978 45.526,94.405 C46.145,104.848 54.307,104.87 54.307,112.049 C54.307,119.226 46.802,127.272 53.45,135 C82.686,135 85.539,135 85.539,135 L85.539,47.93 L52.783,70.37" id="Fill-156" fill="#331A17" mask="url(#mask-4)"></path>
                        <path d="M118.265,70.37 C118.265,84.608 126.079,84.978 125.521,94.405 C124.904,104.848 116.742,104.87 116.742,112.049 C116.742,119.226 124.246,127.272 117.599,135 C88.362,135 85.51,135 85.51,135 L85.51,47.93 L118.265,70.37" id="Fill-158" fill="#331A17" mask="url(#mask-4)"></path>
                        <path d="M122.884,55.647 C122.884,35.101 106.229,18.445 85.682,18.445 C65.136,18.445 48.48,35.101 48.48,55.647 C48.48,76.193 65.136,92.849 85.682,92.849 C106.229,92.849 122.884,76.193 122.884,55.647" id="Fill-159" fill="#331A17" mask="url(#mask-4)"></path>
                        <polyline id="Fill-160" fill="#E5C5A6" mask="url(#mask-4)" points="98.129 135.313 85.524 170.669 73.235 135.313 73.235 108.019 98.129 108.019 98.129 135.313"></polyline>
                        <path d="M85.682,32.37 C73.596,32.37 54.482,39.241 54.482,71.438 C54.482,90.026 61.729,98.791 64.369,102.16 C66.799,105.259 79.272,115.278 85.682,115.278 C85.682,82.739 85.682,32.37 85.682,32.37" id="Fill-161" fill="#EFD4B6" mask="url(#mask-4)"></path>
                        <path d="M48.47,79.114 C47.937,73.97 50.389,69.404 53.943,68.917 C57.5,68.429 60.814,72.204 61.349,77.349 C61.882,82.491 59.43,87.056 55.873,87.544 C52.317,88.031 49.002,84.257 48.47,79.114" id="Fill-162" fill="#EFD4B6" mask="url(#mask-4)"></path>
                        <path d="M85.584,32.37 C97.67,32.37 116.782,39.241 116.782,71.438 C116.782,90.026 109.537,98.791 106.896,102.16 C104.466,105.259 91.992,115.278 85.584,115.278 C85.584,82.739 85.584,32.37 85.584,32.37" id="Fill-163" fill="#E3BB9F" mask="url(#mask-4)"></path>
                        <path d="M122.894,79.114 C123.426,73.97 120.975,69.404 117.42,68.917 C113.862,68.429 110.549,72.204 110.016,77.349 C109.482,82.491 111.934,87.056 115.489,87.544 C119.045,88.031 122.36,84.257 122.894,79.114" id="Fill-164" fill="#E3BB9F" mask="url(#mask-4)"></path>
                        <path d="M85.524,170.669 L85.524,136.669 C85.524,136.669 76.238,134.368 74.191,126.846 C73.207,123.23 73.235,120.329 73.235,120.329 C73.235,120.329 52.93,127.188 48.396,134.271 C44.625,145.499 43.591,170.669 43.591,170.669 L85.524,170.669" id="Fill-165" fill="#E5C5A6" mask="url(#mask-4)"></path>
                        <path d="M85.524,170.669 L85.524,136.669 C85.524,136.669 94.811,134.368 96.857,126.846 C97.841,123.23 97.813,120.329 97.813,120.329 C97.813,120.329 118.118,127.188 122.651,134.271 C126.424,145.499 127.457,170.669 127.457,170.669 L85.524,170.669" id="Fill-166" fill="#E5C5A6" mask="url(#mask-4)"></path>
                        <path d="M85.682,103.939 C90.394,103.939 94.213,101.047 94.213,97.478 L77.15,97.478 C77.15,101.047 80.971,103.939 85.682,103.939" id="Fill-167" fill="#FFFFFE" mask="url(#mask-4)"></path>
                        <path d="M85.524,157.374 C85.524,157.374 76.586,134.999 73.235,120.329 C69.85,121.64 67.078,122.457 64.96,123.555 C54.909,144.718 54.482,170.669 54.482,170.669 L85.524,170.669 L85.524,157.374" id="Fill-168" fill="#D6233B" mask="url(#mask-4)"></path>
                        <path d="M85.661,157.374 C85.661,157.374 94.6,134.999 97.95,120.329 C101.336,121.64 104.107,122.457 106.226,123.555 C116.276,144.718 116.703,170.669 116.703,170.669 L85.661,170.669 L85.661,157.374" id="Fill-169" fill="#B32531" mask="url(#mask-4)"></path>
                        <path d="M83.924,23.107 C61.839,23.107 55.125,42.455 55.125,51.365 C47.115,62.497 55.847,72.457 62.027,75.956 C62.027,73.885 62.027,73.127 62.027,70.479 C62.027,63.279 68.873,56.613 79.154,57.723 C88.368,58.717 94.171,53.511 99.072,44.657 C105.124,32.801 97.57,23.107 83.924,23.107" id="Fill-170" fill="#331A17" mask="url(#mask-4)"></path>
                        <path d="M98.129,41.018 C98.129,41.018 103.288,61.966 117.42,68.917 C119.936,50.084 121.422,54.051 117.42,44.135 C113.418,34.218 98.129,26.851 98.129,26.851 L98.129,41.018" id="Fill-171" fill="#331A17" mask="url(#mask-4)"></path>
                    </g>
                    <path d="M1105,694.002 C1105,647.056448 1066.94433,609 1020.0015,609 C973.055672,609 935,647.056448 935,694.002 C935,740.944552 973.055672,779 1020.0015,779 C1066.94433,779 1105,740.944552 1105,694.002" id="Fill-23" fill="#E99B2E"></path>
                    <path d="M1105,694.002 C1105,647.056448 1066.94366,609 1020,609 L1020,779 C1066.94366,779 1105,740.944552 1105,694.002" id="Fill-24" fill="#E1942E"></path>
                    <g id="Group-42" transform="translate(935.000000, 608.000000)">
                        <mask id="mask-6" fill="white">
                            <use xlink:href="#path-5"></use>
                        </mask>
                        <g id="Clip-26"></g>
                        <polygon id="Fill-25" fill="#CFA085" mask="url(#mask-6)" points="73.023 134.609 97.917 134.609 97.917 107.314 73.023 107.314"></polygon>
                        <path d="M70.003,123.578 C70.003,123.578 46.335,127.039 42.84,130.68 C39.797,133.85 33.469,164.213 32.005,170.877 C73.557,170.877 85.469,170.877 85.469,170.877 L85.469,124.865 L70.003,123.578" id="Fill-27" fill="#BCCACD" mask="url(#mask-6)"></path>
                        <path d="M100.934,123.578 C100.934,123.578 124.603,127.039 128.098,130.68 C131.141,133.85 137.469,164.213 138.933,170.877 C97.381,170.877 85.469,170.877 85.469,170.877 L85.469,124.865 L100.934,123.578" id="Fill-28" fill="#A2B6BB" mask="url(#mask-6)"></path>
                        <polyline id="Fill-29" fill="#1D9E8D" mask="url(#mask-6)" points="83.863 129.373 80.714 161.789 85.47 170.756 90.226 161.789 87.077 129.373 83.863 129.373"></polyline>
                        <polyline id="Fill-30" fill="#1D9E8D" mask="url(#mask-6)" points="89.719 129.104 85.47 133.352 81.221 129.104 85.47 124.855 89.719 129.104"></polyline>
                        <path d="M85.469,29.211 C97.555,29.211 116.669,36.081 116.669,68.277 C116.669,86.867 110.608,99.045 107.968,102.414 C105.538,105.514 91.878,112.117 85.469,112.117 C85.469,79.58 85.469,29.211 85.469,29.211" id="Fill-31" fill="#E3BB9F" mask="url(#mask-6)"></path>
                        <path d="M122.681,75.954 C123.214,70.81 120.763,66.245 117.208,65.757 C113.65,65.27 110.336,69.044 109.803,74.188 C109.269,79.331 111.721,83.896 115.278,84.384 C118.833,84.871 122.147,81.097 122.681,75.954" id="Fill-32" fill="#E3BB9F" mask="url(#mask-6)"></path>
                        <path d="M85.47,29.211 C73.384,29.211 54.271,36.081 54.271,68.277 C54.271,86.867 60.33,99.045 62.971,102.414 C65.401,105.514 79.061,112.117 85.47,112.117 C85.47,79.58 85.47,29.211 85.47,29.211" id="Fill-33" fill="#EFD4B6" mask="url(#mask-6)"></path>
                        <path d="M48.258,75.954 C47.725,70.81 50.176,66.245 53.731,65.757 C57.289,65.27 60.602,69.044 61.136,74.188 C61.67,79.331 59.218,83.896 55.662,84.384 C52.105,84.871 48.791,81.097 48.258,75.954" id="Fill-34" fill="#EFD4B6" mask="url(#mask-6)"></path>
                        <polyline id="Fill-35" fill="#FFFFFE" mask="url(#mask-6)" points="85.469 124.865 72.832 119.783 69.719 122.945 76.006 136.889 85.469 124.865"></polyline>
                        <polyline id="Fill-36" fill="#FFFFFE" mask="url(#mask-6)" points="85.469 124.865 98.106 119.783 101.22 122.945 94.931 136.889 85.469 124.865"></polyline>
                        <polygon id="Fill-37" fill="#798F96" mask="url(#mask-6)" points="58.088 160.5 73.858 160.5 73.858 157.021 58.088 157.021"></polygon>
                        <polygon id="Fill-38" fill="#798F96" mask="url(#mask-6)" points="97.091 160.5 112.862 160.5 112.862 157.021 97.091 157.021"></polygon>
                        <path d="M58.424,76.519 L60.579,76.519 C60.579,76.519 59.269,68.134 63.111,65.427 C63.111,61.234 63.111,60.012 63.111,60.012 C63.111,60.012 61.626,59.837 61.626,53.462 C61.626,47.086 69.225,42.544 85.47,42.544 C85.47,33.461 85.47,22.98 85.47,22.98 C85.47,22.98 53.358,26.444 53.358,49.749 C53.358,59.431 53.358,65.776 53.358,65.776 C53.358,65.776 55.701,65.361 57.376,66.767 C59.181,68.28 58.424,76.519 58.424,76.519" id="Fill-39" fill="#7E593B" mask="url(#mask-6)"></path>
                        <path d="M112.21,76.519 L110.056,76.519 C110.056,76.519 111.366,68.134 107.522,65.427 C107.522,61.234 107.522,60.012 107.522,60.012 C107.522,60.012 109.008,59.837 109.008,53.462 C109.008,47.086 101.409,42.544 85.165,42.544 C85.165,33.461 85.165,22.98 85.165,22.98 C85.165,22.98 117.275,26.444 117.275,49.749 C117.275,59.431 117.275,65.776 117.275,65.776 C117.275,65.776 114.933,65.361 113.258,66.767 C111.453,68.28 112.21,76.519 112.21,76.519" id="Fill-40" fill="#7E593B" mask="url(#mask-6)"></path>
                        <path d="M85.47,98.252 C91.103,98.252 95.67,96.391 95.67,94.096 L75.27,94.096 C75.27,96.391 79.836,98.252 85.47,98.252" id="Fill-41" fill="#FFFFFE" mask="url(#mask-6)"></path>
                    </g>
                    <path d="M1217,95.9995 C1217,49.0552239 1178.94455,11 1132,11 C1085.05545,11 1047,49.0552239 1047,95.9995 C1047,142.943776 1085.05545,181 1132,181 C1178.94455,181 1217,142.943776 1217,95.9995" id="Fill-4" fill="#7A736E"></path>
                    <path d="M1217,95.9995 C1217,49.0552239 1178.94455,11 1132,11 L1132,181 C1178.94455,181 1217,142.943776 1217,95.9995" id="Fill-5" fill="#746C67"></path>
                    <path d="M1217,95.999 C1217,49.0555523 1178.945,11 1132,11 C1085.056,11 1047,49.0555523 1047,95.999 C1047,142.943448 1085.056,181 1132,181 C1178.945,181 1217,142.943448 1217,95.999" id="Fill-6" fill="#2E9C8F"></path>
                    <g id="Group-22" transform="translate(1046.000000, 11.000000)">
                        <mask id="mask-8" fill="white">
                            <use xlink:href="#path-7"></use>
                        </mask>
                        <g id="Clip-8"></g>
                        <polyline id="Fill-7" fill="#CFA085" mask="url(#mask-8)" points="97.979 133.959 85.828 163.451 73.086 133.959 73.086 106.664 97.979 106.664 97.979 133.959"></polyline>
                        <path d="M73.086,122.93 C73.086,122.93 46.397,126.389 42.902,130.029 C39.858,133.201 33.531,163.564 32.067,170.229 C73.619,170.229 85.53,170.229 85.53,170.229 L85.53,154.219 L73.086,122.93" id="Fill-9" fill="#F3F4F1" mask="url(#mask-8)"></path>
                        <path d="M97.979,122.93 C97.979,122.93 124.665,126.389 128.16,130.029 C131.203,133.201 137.531,163.564 138.994,170.229 C97.443,170.229 85.53,170.229 85.53,170.229 L85.53,154.219 L97.979,122.93" id="Fill-10" fill="#E5E6E3" mask="url(#mask-8)"></path>
                        <path d="M85.531,28.561 C97.617,28.561 116.73,35.432 116.73,67.628 C116.73,86.217 110.67,98.395 108.029,101.764 C105.6,104.863 91.94,111.469 85.531,111.469 C85.531,78.93 85.531,28.561 85.531,28.561" id="Fill-11" fill="#E3BB9F" mask="url(#mask-8)"></path>
                        <path d="M122.743,75.305 C123.275,70.16 120.825,65.596 117.27,65.107 C113.713,64.619 110.398,68.395 109.865,73.539 C109.331,78.682 111.783,83.246 115.34,83.734 C118.896,84.221 122.209,80.447 122.743,75.305" id="Fill-12" fill="#E3BB9F" mask="url(#mask-8)"></path>
                        <path d="M85.531,28.561 C73.445,28.561 54.332,35.432 54.332,67.628 C54.332,86.217 60.393,98.395 63.033,101.764 C65.463,104.863 79.122,111.469 85.531,111.469 C85.531,78.93 85.531,28.561 85.531,28.561" id="Fill-13" fill="#EFD4B6" mask="url(#mask-8)"></path>
                        <path d="M48.32,75.305 C47.787,70.16 50.238,65.596 53.793,65.107 C57.351,64.619 60.664,68.395 61.198,73.539 C61.731,78.682 59.279,83.246 55.724,83.734 C52.168,84.221 48.853,80.447 48.32,75.305" id="Fill-14" fill="#EFD4B6" mask="url(#mask-8)"></path>
                        <path d="M58.486,75.869 L60.641,75.869 C60.641,75.869 59.33,67.484 63.174,64.777 C63.174,60.585 63.174,59.361 63.174,59.361 C63.174,59.361 61.688,59.188 61.688,52.813 C61.688,46.436 69.287,41.895 85.531,41.895 C85.531,32.812 85.531,18.572 85.531,18.572 C85.531,18.572 53.42,19.256 53.42,42.562 C53.42,52.242 53.42,65.127 53.42,65.127 C53.42,65.127 55.764,64.711 57.438,66.117 C59.243,67.631 58.486,75.869 58.486,75.869" id="Fill-15" fill="#2B2F31" mask="url(#mask-8)"></path>
                        <path d="M112.577,75.869 L110.423,75.869 C110.423,75.869 111.732,67.484 107.891,64.777 C107.891,60.585 107.891,59.361 107.891,59.361 C107.891,59.361 109.375,59.188 109.375,52.813 C109.375,46.436 101.776,41.895 85.531,41.895 C85.531,32.812 85.531,18.572 85.531,18.572 C85.531,18.572 117.643,17.84 117.643,41.145 C117.643,50.826 117.643,65.127 117.643,65.127 C117.643,65.127 115.3,64.711 113.625,66.117 C111.82,67.631 112.577,75.869 112.577,75.869" id="Fill-16" fill="#2B2F31" mask="url(#mask-8)"></path>
                        <polyline id="Fill-17" fill="#9AABB1" mask="url(#mask-8)" points="85.531 154.219 77.072 125.313 73.949 138.34 85.531 154.219"></polyline>
                        <polyline id="Fill-18" fill="#FFFFFE" mask="url(#mask-8)" points="72.734 119.938 77.175 125.709 73.949 138.34 67.128 129.139 72.734 119.938"></polyline>
                        <polyline id="Fill-19" fill="#9AABB1" mask="url(#mask-8)" points="85.532 154.219 93.192 124.973 97.115 138.34 85.532 154.219"></polyline>
                        <polyline id="Fill-20" fill="#FFFFFE" mask="url(#mask-8)" points="98.328 119.938 93.09 125.367 97.115 138.34 104.527 129.139 98.328 119.938"></polyline>
                        <path d="M85.53,97.602 C91.164,97.602 95.73,95.742 95.73,93.445 L75.33,93.445 C75.33,95.742 79.896,97.602 85.53,97.602" id="Fill-21" fill="#FFFFFE" mask="url(#mask-8)"></path>
                    </g>
                    <path d="M636.489,85.879 C636.489,38.934 598.433,0.878 551.489,0.878 C504.545,0.878 466.491,38.934 466.491,85.879 C466.491,132.821 504.545,170.876 551.489,170.876 C598.433,170.876 636.489,132.821 636.489,85.879" id="Fill-43" fill="#7A736E"></path>
                    <path d="M636.489,85.879 C636.489,38.934 598.433,0.878 551.489,0.878 L551.489,170.876 C598.433,170.876 636.489,132.821 636.489,85.879" id="Fill-44" fill="#746C67"></path>
                    <g id="Group-65" transform="translate(466.000000, 0.000000)">
                        <mask id="mask-10" fill="white">
                            <use xlink:href="#path-9"></use>
                        </mask>
                        <g id="Clip-46"></g>
                        <path d="M100.954,123.579 C100.954,123.579 124.623,127.039 128.117,130.679 C131.161,133.85 137.489,164.214 138.953,170.877 C97.4,170.877 85.488,170.877 85.488,170.877 L85.488,127.761 L100.954,123.579" id="Fill-45" fill="#26292B" mask="url(#mask-10)"></path>
                        <polygon id="Fill-47" fill="#CFA085" mask="url(#mask-10)" points="73.042 135.172 97.936 135.172 97.936 107.877 73.042 107.877"></polygon>
                        <path d="M85.489,29.211 C97.574,29.211 116.689,36.081 116.689,68.277 C116.689,86.866 110.628,99.044 107.988,102.413 C105.558,105.513 91.898,112.118 85.489,112.118 C85.489,79.579 85.489,29.211 85.489,29.211" id="Fill-48" fill="#E3BB9F" mask="url(#mask-10)"></path>
                        <path d="M122.7,75.953 C123.233,70.81 120.782,66.245 117.227,65.757 C113.67,65.269 110.355,69.044 109.822,74.188 C109.289,79.331 111.741,83.896 115.297,84.384 C118.853,84.871 122.168,81.097 122.7,75.953" id="Fill-49" fill="#E3BB9F" mask="url(#mask-10)"></path>
                        <path d="M85.489,29.211 C73.403,29.211 54.29,36.081 54.29,68.277 C54.29,86.866 60.35,99.044 62.991,102.413 C65.42,105.513 79.08,112.118 85.489,112.118 C85.489,79.579 85.489,29.211 85.489,29.211" id="Fill-50" fill="#EFD4B6" mask="url(#mask-10)"></path>
                        <path d="M48.277,75.953 C47.745,70.81 50.195,66.245 53.751,65.757 C57.308,65.269 60.623,69.044 61.156,74.188 C61.689,79.331 59.238,83.896 55.681,84.384 C52.126,84.871 48.811,81.097 48.277,75.953" id="Fill-51" fill="#EFD4B6" mask="url(#mask-10)"></path>
                        <path d="M69.211,35.942 C69.211,35.942 58.655,48.468 62.698,60.146 C63.371,74.071 62.024,78.787 57.532,82.605 C58.655,69.13 57.308,64.638 52.367,66.21 C50.346,55.654 54.706,27.219 69.211,35.942" id="Fill-52" fill="#501618" mask="url(#mask-10)"></path>
                        <path d="M101.684,35.942 C101.684,35.942 112.241,48.468 108.197,60.146 C107.524,74.071 108.872,78.787 113.363,82.605 C112.241,69.13 113.588,64.638 118.529,66.21 C120.55,55.654 116.19,27.219 101.684,35.942" id="Fill-53" fill="#501618" mask="url(#mask-10)"></path>
                        <path d="M70.023,123.579 C70.023,123.579 46.355,127.039 42.86,130.679 C39.816,133.85 33.489,164.214 32.026,170.877 C73.576,170.877 85.488,170.877 85.488,170.877 L85.488,127.761 L70.023,123.579" id="Fill-54" fill="#2B2F31" mask="url(#mask-10)"></path>
                        <polyline id="Fill-55" fill="#B4C0C4" mask="url(#mask-10)" points="101.24 122.944 85.488 126.172 69.738 122.944 85.488 170.877"></polyline>
                        <polyline id="Fill-56" fill="#1E9588" mask="url(#mask-10)" points="84.177 132.635 81.604 165.051 85.488 170.877 89.372 165.051 86.801 132.635 84.177 132.635"></polyline>
                        <path d="M74.133,143.636 L61.606,125.055 C65.036,123.812 68.715,122.878 72.585,122.248 L85.489,170.877 L67.394,144.97 L74.133,143.636" id="Fill-57" fill="#353940" mask="url(#mask-10)"></path>
                        <path d="M96.847,143.636 L109.374,125.055 C105.944,123.812 102.265,122.878 98.395,122.248 L85.489,170.877 L103.585,144.97 L96.847,143.636" id="Fill-58" fill="#353940" mask="url(#mask-10)"></path>
                        <polyline id="Fill-59" fill="#1E9588" mask="url(#mask-10)" points="89.738 130.558 85.489 134.936 81.241 130.558 85.489 126.179 89.738 130.558"></polyline>
                        <polyline id="Fill-60" fill="#FFFFFE" mask="url(#mask-10)" points="85.488 126.173 98.126 119.783 104.642 123.579 91.113 134.393 85.488 126.173"></polyline>
                        <polyline id="Fill-61" fill="#FFFFFE" mask="url(#mask-10)" points="85.49 126.173 72.853 119.783 66.336 123.579 79.636 134.393 85.49 126.173"></polyline>
                        <path d="M115.312,41.436 C110.34,21.003 80.048,4.954 58.757,37.026 C57.391,43.352 63.34,46.318 63.34,46.318 C63.34,46.318 67.313,37.026 85.533,41.314 C94.607,39.331 103.448,37.854 107.527,46.243 C111.607,54.632 115.312,41.436 115.312,41.436" id="Fill-62" fill="#501618" mask="url(#mask-10)"></path>
                        <path d="M103.37,98.323 C97.122,98.323 92.653,93.247 85.488,93.247 C78.323,93.247 73.855,98.323 67.606,98.323 C60.757,98.323 56.448,86.517 55.147,82.378 C56.913,94.29 60.96,102.09 62.991,104.68 C65.42,107.779 79.079,114.384 85.489,114.385 C91.899,114.384 105.558,107.779 107.988,104.68 C110.018,102.089 114.068,94.284 115.833,82.365 C114.538,86.492 110.227,98.323 103.37,98.323" id="Fill-63" fill="#501618" mask="url(#mask-10)"></path>
                        <path d="M85.49,104.001 C87.597,104.001 89.305,103.111 89.305,102.015 L81.675,102.015 C81.675,103.111 83.383,104.001 85.49,104.001" id="Fill-64" fill="#FFFFFE" mask="url(#mask-10)"></path>
                    </g>
                    <path d="M607.511,842.867 C607.511,795.923 569.456,757.867 522.512,757.867 C475.567,757.867 437.513,795.923 437.513,842.867 C437.513,889.811 475.567,927.865 522.512,927.865 C569.456,927.865 607.511,889.811 607.511,842.867" id="Fill-136" fill="#2E9C8F"></path>
                    <path d="M607.511,842.867 C607.511,795.923 569.456,757.867 522.512,757.867 L522.512,927.865 C569.456,927.865 607.511,889.811 607.511,842.867" id="Fill-137" fill="#2D9689"></path>
                    <g id="Group-153" transform="translate(437.000000, 757.000000)">
                        <mask id="mask-12" fill="white">
                            <use xlink:href="#path-11"></use>
                        </mask>
                        <g id="Clip-139"></g>
                        <path d="M122.871,55.996 C122.871,35.449 106.215,18.794 85.67,18.794 C65.123,18.794 48.468,35.449 48.468,55.996 C48.468,76.542 65.123,93.197 85.67,93.197 C106.215,93.197 122.871,76.542 122.871,55.996" id="Fill-138" fill="#543B2E" mask="url(#mask-12)"></path>
                        <polyline id="Fill-140" fill="#E5C5A6" mask="url(#mask-12)" points="98.115 135.662 85.512 171.018 73.223 135.662 73.223 108.367 98.115 108.367 98.115 135.662"></polyline>
                        <path d="M85.669,32.72 C73.583,32.72 54.47,39.591 54.47,71.786 C54.47,90.375 61.715,99.14 64.355,102.509 C66.787,105.608 79.26,115.627 85.669,115.627 C85.669,83.089 85.669,32.72 85.669,32.72" id="Fill-141" fill="#EFD4B6" mask="url(#mask-12)"></path>
                        <path d="M48.457,79.463 C47.924,74.318 50.376,69.754 53.931,69.266 C57.488,68.778 60.803,72.554 61.336,77.697 C61.869,82.84 59.417,87.404 55.861,87.893 C52.305,88.38 48.99,84.605 48.457,79.463" id="Fill-142" fill="#EFD4B6" mask="url(#mask-12)"></path>
                        <path d="M85.57,32.72 C97.656,32.72 116.77,39.591 116.77,71.786 C116.77,90.375 109.524,99.14 106.884,102.509 C104.453,105.608 91.98,115.627 85.57,115.627 C85.57,83.089 85.57,32.72 85.57,32.72" id="Fill-143" fill="#E3BB9F" mask="url(#mask-12)"></path>
                        <path d="M122.881,79.463 C123.414,74.318 120.963,69.754 117.407,69.266 C113.851,68.778 110.536,72.554 110.002,77.697 C109.469,82.84 111.921,87.404 115.478,87.893 C119.033,88.38 122.348,84.605 122.881,79.463" id="Fill-144" fill="#E3BB9F" mask="url(#mask-12)"></path>
                        <path d="M85.26,24.921 C84.68,24.847 84.075,24.797 83.426,24.79 C83.426,24.79 63.012,26.319 57.33,52.907 C54.604,54.952 49.604,62.905 56.194,71.769 C57.103,64.269 59.85,58.837 64.602,56.77 C73.034,53.102 76.506,56.51 86.277,49.012 C91.984,44.632 94.036,35.825 92.774,30.904 C90.505,24.79 84.711,25.02 85.26,24.921" id="Fill-145" fill="#543B2E" mask="url(#mask-12)"></path>
                        <path d="M91.482,32.309 C91.482,32.309 84.125,59.76 116.252,71.253 C123.949,46.125 109.888,29.733 91.482,32.309" id="Fill-146" fill="#543B2E" mask="url(#mask-12)"></path>
                        <path d="M85.512,171.018 L85.512,137.018 C85.512,137.018 76.226,134.717 74.178,127.194 C73.195,123.579 73.223,120.678 73.223,120.678 C73.223,120.678 52.918,127.536 48.385,134.619 C44.612,145.848 43.578,171.018 43.578,171.018 L85.512,171.018" id="Fill-147" fill="#E5C5A6" mask="url(#mask-12)"></path>
                        <path d="M85.512,171.018 L85.512,137.018 C85.512,137.018 94.798,134.717 96.846,127.194 C97.828,123.579 97.801,120.678 97.801,120.678 C97.801,120.678 118.105,127.536 122.639,134.619 C126.411,145.848 127.445,171.018 127.445,171.018 L85.512,171.018" id="Fill-148" fill="#E5C5A6" mask="url(#mask-12)"></path>
                        <path d="M85.67,104.288 C90.381,104.288 94.2,101.396 94.2,97.826 L77.139,97.826 C77.139,101.396 80.958,104.288 85.67,104.288" id="Fill-149" fill="#FFFFFE" mask="url(#mask-12)"></path>
                        <path d="M97.414,18.794 C97.414,12.308 92.156,7.05 85.67,7.05 C79.184,7.05 73.925,12.308 73.925,18.794 C73.925,25.28 79.184,30.538 85.67,30.538 C92.156,30.538 97.414,25.28 97.414,18.794" id="Fill-150" fill="#543B2E" mask="url(#mask-12)"></path>
                        <path d="M85.512,145.58 C75.117,145.58 66.671,135.636 66.445,123.269 C62.337,124.978 60.667,125.568 57.604,127.435 C57.244,129.929 54.493,136.801 53.212,147.144 C51.949,157.335 54.912,171.018 54.912,171.018 L85.512,171.018 L85.512,145.58" id="Fill-151" fill="#88BE42" mask="url(#mask-12)"></path>
                        <path d="M85.512,145.58 C95.906,145.58 104.353,135.636 104.578,123.269 C108.687,124.978 110.356,125.568 113.42,127.435 C113.779,129.929 116.53,136.801 117.812,147.144 C119.074,157.335 116.111,171.018 116.111,171.018 L85.512,171.018 L85.512,145.58" id="Fill-152" fill="#5A9D43" mask="url(#mask-12)"></path>
                    </g>
                    <path d="M229.467,146.226 C229.467,99.282 191.412,61.227 144.47,61.227 C97.525,61.227 59.47,99.282 59.47,146.226 C59.47,193.17 97.525,231.226 144.47,231.226 C191.412,231.226 229.467,193.17 229.467,146.226" id="Fill-193" fill="#52446F"></path>
                    <path d="M229.467,146.226 C229.467,99.282 191.412,61.227 144.47,61.227 L144.47,231.226 C191.412,231.226 229.467,193.17 229.467,146.226" id="Fill-194" fill="#4B3E67"></path>
                    <g id="Group-212" transform="translate(59.000000, 61.000000)">
                        <mask id="mask-14" fill="white">
                            <use xlink:href="#path-13"></use>
                        </mask>
                        <g id="Clip-196"></g>
                        <path d="M122.831,55.356 C122.831,34.811 106.175,18.154 85.628,18.154 C65.083,18.154 48.426,34.811 48.426,55.356 C48.426,75.902 65.083,92.559 85.628,92.559 C106.175,92.559 122.831,75.902 122.831,55.356" id="Fill-195" fill="#331A17" mask="url(#mask-14)"></path>
                        <polyline id="Fill-197" fill="#E5C5A6" mask="url(#mask-14)" points="98.075 135.023 85.471 170.379 73.182 135.023 73.182 107.729 98.075 107.729 98.075 135.023"></polyline>
                        <path d="M85.628,32.08 C73.542,32.08 54.429,38.951 54.429,71.146 C54.429,89.736 61.674,98.501 64.315,101.87 C66.745,104.969 79.219,114.988 85.628,114.988 C85.628,82.449 85.628,32.08 85.628,32.08" id="Fill-198" fill="#EFD4B6" mask="url(#mask-14)"></path>
                        <path d="M48.416,78.824 C47.884,73.68 50.335,69.114 53.89,68.627 C57.447,68.139 60.761,71.914 61.294,77.059 C61.828,82.201 59.376,86.766 55.82,87.254 C52.264,87.74 48.949,83.967 48.416,78.824" id="Fill-199" fill="#EFD4B6" mask="url(#mask-14)"></path>
                        <path d="M85.529,32.08 C97.616,32.08 116.729,38.951 116.729,71.146 C116.729,89.736 109.483,98.501 106.843,101.87 C104.412,104.969 91.939,114.988 85.529,114.988 C85.529,82.449 85.529,32.08 85.529,32.08" id="Fill-200" fill="#E3BB9F" mask="url(#mask-14)"></path>
                        <path d="M122.84,78.824 C123.374,73.68 120.922,69.114 117.367,68.627 C113.81,68.139 110.495,71.914 109.961,77.059 C109.428,82.201 111.881,86.766 115.437,87.254 C118.993,87.74 122.308,83.967 122.84,78.824" id="Fill-201" fill="#E3BB9F" mask="url(#mask-14)"></path>
                        <path d="M85.471,170.379 L85.471,136.379 C85.471,136.379 76.185,134.078 74.138,126.556 C73.153,122.941 73.182,120.039 73.182,120.039 C73.182,120.039 52.876,126.897 48.343,133.98 C44.571,145.209 43.537,170.379 43.537,170.379 L85.471,170.379" id="Fill-202" fill="#E5C5A6" mask="url(#mask-14)"></path>
                        <path d="M85.471,170.379 L85.471,136.379 C85.471,136.379 94.757,134.078 96.804,126.556 C97.788,122.941 97.759,120.039 97.759,120.039 C97.759,120.039 118.065,126.897 122.598,133.98 C126.371,145.209 127.404,170.379 127.404,170.379 L85.471,170.379" id="Fill-203" fill="#E5C5A6" mask="url(#mask-14)"></path>
                        <path d="M85.628,103.65 C90.34,103.65 94.16,100.757 94.16,97.188 L77.098,97.188 C77.098,100.757 80.917,103.65 85.628,103.65" id="Fill-204" fill="#FFFFFE" mask="url(#mask-14)"></path>
                        <path d="M83.87,22.816 C61.786,22.816 55.071,42.164 55.071,51.074 C47.062,62.207 55.793,72.166 61.975,75.666 C61.975,73.594 61.975,72.836 61.975,70.188 C61.975,62.988 68.819,56.322 79.102,57.432 C88.315,58.427 94.117,53.221 99.019,44.366 C105.071,32.51 97.518,22.816 83.87,22.816" id="Fill-205" fill="#331A17" mask="url(#mask-14)"></path>
                        <path d="M98.075,40.727 C98.075,40.727 103.234,61.676 117.367,68.627 C119.882,49.794 121.368,53.761 117.367,43.844 C113.365,33.928 98.075,26.561 98.075,26.561 L98.075,40.727" id="Fill-206" fill="#331A17" mask="url(#mask-14)"></path>
                        <path d="M85.471,170.379 L85.471,125.162 L73.182,120.039 C73.182,120.039 52.876,126.897 48.343,133.98 C44.571,145.209 43.537,170.379 43.537,170.379 L85.471,170.379" id="Fill-207" fill="#F3F4F1" mask="url(#mask-14)"></path>
                        <path d="M85.471,170.379 L85.471,125.162 L97.759,120.039 C97.759,120.039 118.065,126.897 122.598,133.98 C126.371,145.209 127.404,170.379 127.404,170.379 L85.471,170.379" id="Fill-208" fill="#E5E6E3" mask="url(#mask-14)"></path>
                        <path d="M78.646,24.44 C78.646,24.44 59.755,-4.742 36.555,17.924 C13.354,40.592 40.17,82.572 26.192,89.183 C41.449,87.209 45.211,65.609 43.716,46.598 C42.394,29.787 57.127,21.664 68.598,28.549 C73.415,31.439 78.646,24.44 78.646,24.44" id="Fill-209" fill="#331A17" mask="url(#mask-14)"></path>
                        <polyline id="Fill-210" fill="#FFFFFE" mask="url(#mask-14)" points="85.47 125.12 72.834 120.039 69.72 123.199 76.008 137.145 85.47 125.12"></polyline>
                        <polyline id="Fill-211" fill="#FFFFFE" mask="url(#mask-14)" points="85.47 125.12 98.108 120.039 101.221 123.199 94.933 137.145 85.47 125.12"></polyline>
                    </g>
                    <path d="M215.467,658.774 C215.467,611.83 177.411,573.774 130.466,573.774 C83.523,573.774 45.467,611.83 45.467,658.774 C45.467,705.719 83.523,743.774 130.466,743.774 C177.411,743.774 215.467,705.719 215.467,658.774" id="Fill-213" fill="#2E9C8F"></path>
                    <path d="M215.467,658.774 C215.467,611.83 177.411,573.774 130.466,573.774 L130.466,743.774 C177.411,743.774 215.467,705.719 215.467,658.774" id="Fill-214" fill="#2D9689"></path>
                    <g id="Group-233" transform="translate(45.000000, 573.000000)">
                        <mask id="mask-16" fill="white">
                            <use xlink:href="#path-15"></use>
                        </mask>
                        <g id="Clip-216"></g>
                        <path d="M122.671,55.903 C122.671,35.357 106.016,18.701 85.47,18.701 C64.924,18.701 48.268,35.357 48.268,55.903 C48.268,76.449 64.924,93.104 85.47,93.104 C106.016,93.104 122.671,76.449 122.671,55.903" id="Fill-215" fill="#3A291F" mask="url(#mask-16)"></path>
                        <polyline id="Fill-217" fill="#E5C5A6" mask="url(#mask-16)" points="97.917 135.569 85.312 170.925 73.023 135.569 73.023 108.274 97.917 108.274 97.917 135.569"></polyline>
                        <path d="M85.47,32.627 C73.384,32.627 54.271,39.497 54.271,71.693 C54.271,90.282 61.516,99.047 64.157,102.416 C66.587,105.515 79.061,115.534 85.47,115.534 C85.47,82.995 85.47,32.627 85.47,32.627" id="Fill-218" fill="#EFD4B6" mask="url(#mask-16)"></path>
                        <path d="M48.258,79.37 C47.725,74.226 50.177,69.661 53.731,69.173 C57.289,68.686 60.603,72.46 61.136,77.604 C61.67,82.747 59.218,87.312 55.662,87.8 C52.106,88.287 48.791,84.513 48.258,79.37" id="Fill-219" fill="#EFD4B6" mask="url(#mask-16)"></path>
                        <path d="M85.371,32.627 C97.457,32.627 116.57,39.497 116.57,71.693 C116.57,90.282 109.325,99.047 106.684,102.416 C104.254,105.515 91.78,115.534 85.371,115.534 C85.371,82.995 85.371,32.627 85.371,32.627" id="Fill-220" fill="#E3BB9F" mask="url(#mask-16)"></path>
                        <path d="M122.682,79.37 C123.214,74.226 120.763,69.661 117.208,69.173 C113.651,68.686 110.336,72.46 109.803,77.604 C109.27,82.747 111.722,87.312 115.278,87.8 C118.834,88.287 122.148,84.513 122.682,79.37" id="Fill-221" fill="#E3BB9F" mask="url(#mask-16)"></path>
                        <path d="M85.312,170.925 L85.312,136.925 C85.312,136.925 76.026,134.623 73.979,127.102 C72.995,123.486 73.023,120.585 73.023,120.585 C73.023,120.585 52.718,127.443 48.185,134.526 C44.413,145.755 43.379,170.925 43.379,170.925 L85.312,170.925" id="Fill-222" fill="#E5C5A6" mask="url(#mask-16)"></path>
                        <path d="M85.312,170.925 L85.312,136.925 C85.312,136.925 94.598,134.623 96.646,127.102 C97.629,123.486 97.601,120.585 97.601,120.585 C97.601,120.585 117.906,127.443 122.439,134.526 C126.211,145.755 127.246,170.925 127.246,170.925 L85.312,170.925" id="Fill-223" fill="#E5C5A6" mask="url(#mask-16)"></path>
                        <path d="M85.312,170.925 L85.312,136.925 C85.312,136.925 76.026,134.623 73.979,127.102 C72.995,123.486 73.023,120.585 73.023,120.585 C73.023,120.585 52.718,127.443 48.185,134.526 C44.413,145.755 43.379,170.925 43.379,170.925 L85.312,170.925" id="Fill-224" fill="#E5C5A6" mask="url(#mask-16)"></path>
                        <path d="M85.312,170.925 L85.312,136.925 C85.312,136.925 94.598,134.623 96.646,127.102 C97.629,123.486 97.601,120.585 97.601,120.585 C97.601,120.585 117.906,127.443 122.439,134.526 C126.211,145.755 127.246,170.925 127.246,170.925 L85.312,170.925" id="Fill-225" fill="#E5C5A6" mask="url(#mask-16)"></path>
                        <path d="M85.47,104.195 C90.181,104.195 94,101.303 94,97.733 L76.939,97.733 C76.939,101.303 80.758,104.195 85.47,104.195" id="Fill-226" fill="#FFFFFE" mask="url(#mask-16)"></path>
                        <path d="M83.711,23.363 C61.627,23.363 54.913,42.711 54.913,51.621 C46.904,62.753 55.635,72.713 61.816,76.212 C61.816,74.141 61.816,73.383 61.816,70.734 C61.816,63.535 68.661,56.869 78.942,57.979 C88.156,58.974 93.958,53.767 98.86,44.913 C104.912,33.058 97.359,23.363 83.711,23.363" id="Fill-227" fill="#3A291F" mask="url(#mask-16)"></path>
                        <path d="M97.917,41.273 C97.917,41.273 103.076,62.222 117.208,69.173 C119.723,50.341 121.209,54.308 117.208,44.391 C113.207,34.474 97.917,27.107 97.917,27.107 L97.917,41.273" id="Fill-228" fill="#3A291F" mask="url(#mask-16)"></path>
                        <path d="M122.439,134.526 C118.658,128.618 103.911,122.869 99.121,121.124 C98.837,128.508 92.765,134.407 85.312,134.407 C77.859,134.407 71.788,128.508 71.503,121.124 C66.713,122.869 51.967,128.618 48.185,134.526 C44.413,145.755 43.379,170.925 43.379,170.925 L127.246,170.925 C127.246,170.925 126.211,145.755 122.439,134.526" id="Fill-229" fill="#ED9B30" mask="url(#mask-16)"></path>
                        <path d="M127.246,170.925 C127.246,170.925 126.211,145.755 122.439,134.526 C118.658,128.618 103.911,122.869 99.121,121.124 C98.837,128.508 92.765,134.407 85.312,134.407 L85.312,170.925 L127.246,170.925" id="Fill-230" fill="#EA862F" mask="url(#mask-16)"></path>
                        <path d="M66.95,122.886 C68.329,131.787 76.024,138.601 85.312,138.601 C94.6,138.601 102.295,131.787 103.675,122.886 C101.809,122.123 100.208,121.52 99.121,121.124 C98.837,128.508 92.765,134.407 85.312,134.407 C77.859,134.407 71.788,128.508 71.503,121.124 C70.418,121.52 68.816,122.123 66.95,122.886" id="Fill-231" fill="#3BAB48" mask="url(#mask-16)"></path>
                        <path d="M97.917,18.701 C97.917,11.827 92.344,6.255 85.47,6.255 C78.596,6.255 73.023,11.827 73.023,18.701 C73.023,25.575 78.596,31.148 85.47,31.148 C92.344,31.148 97.917,25.575 97.917,18.701" id="Fill-232" fill="#3A291F" mask="url(#mask-16)"></path>
                    </g>
                </g>
            </g>
        </g>
    </g>
</svg>